<?xml version="1.0" encoding="UTF-8"?>
<svg version="1.1" xmlns="http://www.w3.org/2000/svg" width="500" height="500">
<path d="M0 0 C18.95178213 14.73614027 28.97462097 33.91825031 35.26025391 56.68164062 C37.06554494 53.97370407 38.37236924 51.28752822 39.72045898 48.33764648 C47.44261745 31.79567575 58.82103899 22.36884878 75.36181641 14.72460938 C91.99985836 8.73760506 109.6446266 10.67526844 125.51025391 17.93164062 C141.51497224 26.53745639 151.65956887 40.17193673 157.42822266 57.11132812 C161.86013244 74.13152628 159.15334676 91.45256405 150.36962891 106.58007812 C140.10005865 121.68014995 126.19057287 131.42910395 108.28369141 135.33007812 C89.42932556 137.52244625 72.59936768 133.51497642 57.11181641 122.42773438 C48.22122649 114.86948777 41.05885993 105.09357298 38.26025391 93.68164062 C36.28859374 94.10621948 36.28859374 94.10621948 34.26025391 95.68164062 C33.01769312 98.43894219 31.98587639 101.08264799 31.01025391 103.93164062 C21.52563494 129.81615478 4.55449848 147.56328349 -20.30224609 159.49414062 C-41.67072891 169.39720994 -67.34715601 169.35566857 -89.36474609 161.49414062 C-100.52895351 156.87351451 -110.69734506 150.72275364 -119.73974609 142.68164062 C-120.48611328 142.029375 -121.23248047 141.37710938 -122.00146484 140.70507812 C-138.63820695 125.20067972 -148.99748375 101.90410694 -149.96240234 79.29882812 C-150.66712254 52.80626558 -142.8804274 29.48206324 -124.73974609 9.68164062 C-90.98271312 -24.9623623 -38.51362493 -29.18517747 0 0 Z " fill="#FDFDFD" transform="translate(214.73974609375,176.318359375)"/>
<path d="M0 0 C14.10899301 11.90446286 22.48068038 27.08898035 24.18359375 45.60546875 C24.8248502 62.80280088 19.099828 78.81956916 7.5625 91.625 C-3.51130387 103.28499776 -17.78733544 110.60456886 -34.0078125 111.453125 C-51.60531632 111.78386629 -67.45427841 107.19389427 -81.0625 95.625 C-88.57089727 88.28673258 -94.61128565 79.50022378 -97.125 69.25 C-98.2078125 69.559375 -98.2078125 69.559375 -99.3125 69.875 C-102.60633402 70.31417787 -104.21360203 69.78657115 -107.125 68.25 C-107.62 67.26 -107.62 67.26 -108.125 66.25 C-108.599375 66.745 -109.07375 67.24 -109.5625 67.75 C-113.35480502 69.96988587 -116.83358655 69.93505132 -121.125 69.25 C-123.6875 67.75 -123.6875 67.75 -125.125 65.25 C-125.66653233 62.46823392 -125.85526776 59.99924335 -125.125 57.25 C-122.30969301 53.6453546 -119.76497804 52.54523287 -115.375 51.5 C-114.39015625 51.25765625 -113.4053125 51.0153125 -112.390625 50.765625 C-111.64296875 50.59546875 -110.8953125 50.4253125 -110.125 50.25 C-109.795 48.93 -109.465 47.61 -109.125 46.25 C-109.80046875 46.394375 -110.4759375 46.53875 -111.171875 46.6875 C-112.06390625 46.873125 -112.9559375 47.05875 -113.875 47.25 C-114.75671875 47.435625 -115.6384375 47.62125 -116.546875 47.8125 C-119.125 48.25 -119.125 48.25 -123.125 48.25 C-123.455 46.93 -123.785 45.61 -124.125 44.25 C-119.61183932 40.44944364 -116.35660865 39.66884714 -110.46484375 39.92578125 C-107.37036763 40.35456509 -105.47720058 41.19182449 -103.125 43.25 C-102.42348848 44.5653341 -101.75111273 45.89714928 -101.125 47.25 C-101.13402344 46.4971875 -101.14304688 45.744375 -101.15234375 44.96875 C-100.69028687 28.41506015 -92.26763634 13.9575665 -80.5625 2.5625 C-57.46840216 -17.1969662 -24.29320569 -18.60756181 0 0 Z " fill="#FCB304" transform="translate(350.125,200.75)"/>
<path d="M0 0 C4.455 0.99 4.455 0.99 9 2 C9 2.66 9 3.32 9 4 C12.63 4 16.26 4 20 4 C20.268125 4.99 20.53625 5.98 20.8125 7 C21.60852458 9.81758342 22.55957699 12.52332501 23.625 15.25 C25 19 25 19 25 22 C26.32 22.33 27.64 22.66 29 23 C29 23.99 29 24.98 29 26 C23.65141993 28.67429003 19.99290494 29.57995854 14 29 C11 27.5 11 27.5 9 26 C9.78757869 22.31642885 11.28226829 19.38977591 13.0625 16.09765625 C14.27165913 13.59962681 14.27165913 13.59962681 15 9 C11.37 9 7.74 9 4 9 C4.495 20.385 4.495 20.385 5 32 C7.64 32.66 10.28 33.32 13 34 C13 34.66 13 35.32 13 36 C4.75 36 -3.5 36 -12 36 C-10.50415516 33.00831032 -7.93920694 32.46960347 -5 31 C-2.88234821 29.33739624 -2.09758247 28.49121836 -1.56762695 25.82348633 C-1.54144287 25.00130615 -1.51525879 24.17912598 -1.48828125 23.33203125 C-1.45283203 22.43935547 -1.41738281 21.54667969 -1.38085938 20.62695312 C-1.35830078 19.69818359 -1.33574219 18.76941406 -1.3125 17.8125 C-1.26125977 16.40194336 -1.26125977 16.40194336 -1.20898438 14.96289062 C-1.12652849 12.6423464 -1.06158697 10.32119183 -1 8 C-5.95 8 -10.9 8 -16 8 C-15.67 9.32 -15.34 10.64 -15 12 C-15.33 12 -15.66 12 -16 12 C-16 15.3 -16 18.6 -16 22 C-14.68 22 -13.36 22 -12 22 C-12.33 20.02 -12.66 18.04 -13 16 C-9.46413986 19.17320782 -7.41421969 21.16743695 -7 26 C-12.03115389 29.0960947 -16.23427144 29.8016521 -22 29 C-25.5625 27.5 -25.5625 27.5 -28 26 C-28 25.01 -28 24.02 -28 23 C-26.68 22.67 -25.36 22.34 -24 22 C-23.814375 20.9171875 -23.814375 20.9171875 -23.625 19.8125 C-23 17 -23 17 -22 14.625 C-20.78812551 11.44382947 -20.39655973 8.37075774 -20 5 C-13.50332242 3.18093028 -6.6890569 2.71289269 0 2 C0 1.34 0 0.68 0 0 Z " fill="#F4BB37" transform="translate(101,234)"/>
<path d="M0 0 C2.475 0.495 2.475 0.495 5 1 C4.835 1.7425 4.67 2.485 4.5 3.25 C3.86932823 6.71869473 3.99490488 9.92994212 4.25 13.4375 C4 17 4 17 2.6875 19.8125 C-1.38946934 23.13096342 -5.87764857 23.40828009 -11 24 C-11 24.66 -11 25.32 -11 26 C-10.26394531 26.03738281 -9.52789062 26.07476562 -8.76953125 26.11328125 C-2.13103132 26.56052497 2.15992969 27.15992969 7 32 C7.33386472 35.83944423 7.44664998 38.9150935 5 42 C-1.10133436 45.79638582 -7.97326006 45.90724997 -15 45 C-19.64533821 42.70932358 -19.64533821 42.70932358 -21 40 C-21.039992 38.00039988 -21.04346799 35.99952758 -21 34 C-19.35 33.34 -17.7 32.68 -16 32 C-16.66 31.01 -17.32 30.02 -18 29 C-18.3125 26.5 -18.3125 26.5 -18 24 C-16.5 22.1875 -16.5 22.1875 -15 21 C-15.72703125 20.39285156 -15.72703125 20.39285156 -16.46875 19.7734375 C-18.82749121 17.04163007 -18.54637736 14.71843535 -18.3984375 11.23046875 C-18 9 -18 9 -16.125 5.9375 C-11.7800725 3.24364495 -7.99504325 3.38114508 -3 4 C-2.34 4.33 -1.68 4.66 -1 5 C-0.67 3.35 -0.34 1.7 0 0 Z " fill="#0A0A0A" transform="translate(215,237)"/>
<path d="M0 0 C3.63 0 7.26 0 11 0 C12.7148681 4.92758532 14.42370025 9.85720608 16.12695312 14.78881836 C16.70732517 16.4664766 17.28934749 18.14356488 17.87304688 19.82006836 C18.71137224 22.22882807 19.54375694 24.63956978 20.375 27.05078125 C20.63748535 27.80087967 20.8999707 28.55097809 21.17041016 29.32380676 C22.20420273 32.33806007 23 34.78955964 23 38 C20.36 38 17.72 38 15 38 C14.34 35.03 13.68 32.06 13 29 C8.05 29.33 3.1 29.66 -2 30 C-2.66 32.64 -3.32 35.28 -4 38 C-6.64 38 -9.28 38 -12 38 C-11.46214291 33.02482194 -9.85622489 28.71592053 -8.109375 24.0703125 C-6.9436985 20.84417965 -5.92800816 17.59641551 -4.9375 14.3125 C-3.47092971 9.4548482 -1.85219352 4.72309347 0 0 Z " fill="#FEFBE8" transform="translate(330,232)"/>
<path d="M0 0 C8.00264281 7.11862994 10.48307496 20.43576016 11.28515625 30.62109375 C11.46086089 37.71803317 10.73734442 43.47043209 8 50 C7.608125 51.175625 7.21625 52.35125 6.8125 53.5625 C6.544375 54.366875 6.27625 55.17125 6 56 C5.34 55.67 4.68 55.34 4 55 C1.03 54.67 -1.94 54.34 -5 54 C-5.33 43.44 -5.66 32.88 -6 22 C-6.66 21.67 -7.32 21.34 -8 21 C-7.67 19.02 -7.34 17.04 -7 15 C-6.34 15 -5.68 15 -5 15 C-5 14.01 -5 13.02 -5 12 C-3.02 12 -1.04 12 1 12 C1.08159574 7.83861737 0.98248524 4.0527516 0 0 Z " fill="#FAB510" transform="translate(363,216)"/>
<path d="M0 0 C2.48050929 1.16432069 4.09425952 2.09425952 6 4 C6.08631874 5.34267413 6.10706473 6.68974322 6.09765625 8.03515625 C6.09443359 8.84404297 6.09121094 9.65292969 6.08789062 10.48632812 C6.07951172 11.33646484 6.07113281 12.18660156 6.0625 13.0625 C6.05798828 13.91650391 6.05347656 14.77050781 6.04882812 15.65039062 C6.03700373 17.76695663 6.01906769 19.88348685 6 22 C7.32 22.33 8.64 22.66 10 23 C10 24.98 10 26.96 10 29 C7.301935 29.99928333 6.11989571 30.03624754 3.3125 29.1875 C1 28 1 28 0 26 C-0.474375 26.495 -0.94875 26.99 -1.4375 27.5 C-5.22980502 29.71988587 -8.70858655 29.68505132 -13 29 C-15.5625 27.5 -15.5625 27.5 -17 25 C-17.54153233 22.21823392 -17.73026776 19.74924335 -17 17 C-14.18469301 13.3953546 -11.63997804 12.29523287 -7.25 11.25 C-6.26515625 11.00765625 -5.2803125 10.7653125 -4.265625 10.515625 C-3.51796875 10.34546875 -2.7703125 10.1753125 -2 10 C-1.67 8.68 -1.34 7.36 -1 6 C-1.67546875 6.144375 -2.3509375 6.28875 -3.046875 6.4375 C-3.93890625 6.623125 -4.8309375 6.80875 -5.75 7 C-7.07257813 7.2784375 -7.07257813 7.2784375 -8.421875 7.5625 C-11 8 -11 8 -15 8 C-15.33 6.68 -15.66 5.36 -16 4 C-10.90280879 -0.29237155 -6.58525124 -0.94388601 0 0 Z " fill="#0B0A09" transform="translate(242,241)"/>
<path d="M0 0 C2.93423195 1.79646854 4.47205355 2.9441071 6 6 C6.13677734 9.33736713 6.04283944 12.6585233 6 16 C-0.27 16 -6.54 16 -13 16 C-12.01 17.98 -11.02 19.96 -10 22 C-7.03 22 -4.06 22 -1 22 C-0.67 21.34 -0.34 20.68 0 20 C2.16874252 20.50603992 3.99967627 20.99983813 6 22 C4.53284672 26.6459854 4.53284672 26.6459854 2.2890625 28.13671875 C-2.31401003 29.87268979 -7.17795876 29.63821134 -12 29 C-15.98348877 27.09187847 -18.36014992 24.05570063 -20 20 C-20.68078869 14.75951028 -20.61301835 10.32034723 -18.375 5.5 C-13.1219228 -0.02955494 -7.38165667 -1.14415678 0 0 Z " fill="#090909" transform="translate(184,241)"/>
<path d="M0 0 C2.31 0 4.62 0 7 0 C7.32613281 0.79664063 7.65226562 1.59328125 7.98828125 2.4140625 C8.64376953 4.00347656 8.64376953 4.00347656 9.3125 5.625 C9.74175781 6.66914063 10.17101562 7.71328125 10.61328125 8.7890625 C11.96687115 11.92329038 13.44438284 14.96175652 15 18 C15.42152344 16.78441406 15.84304688 15.56882812 16.27734375 14.31640625 C16.83057808 12.73171808 17.38397172 11.14708552 17.9375 9.5625 C18.21529297 8.76005859 18.49308594 7.95761719 18.77929688 7.13085938 C19.04677734 6.36708984 19.31425781 5.60332031 19.58984375 4.81640625 C19.83597412 4.10943604 20.08210449 3.40246582 20.33569336 2.67407227 C21 1 21 1 22 0 C24.33297433 -0.04092937 26.66705225 -0.04241723 29 0 C27.96841157 6.07088373 25.66020207 11.69969106 23.49951172 17.43774414 C22.75511678 19.42384802 22.02787443 21.41571182 21.30078125 23.40820312 C20.82136193 24.68789364 20.34092554 25.96720369 19.859375 27.24609375 C19.43108398 28.39779053 19.00279297 29.5494873 18.56152344 30.73608398 C16.59852272 34.83917288 14.19841721 38.90079139 10 41 C8.29297265 41.06996014 6.58331997 41.08440154 4.875 41.0625 C3.96492188 41.05347656 3.05484375 41.04445313 2.1171875 41.03515625 C1.41851562 41.02355469 0.71984375 41.01195312 0 41 C0 38.69 0 36.38 0 34 C1.6396875 34.0928125 1.6396875 34.0928125 3.3125 34.1875 C6.8580271 34.29448775 6.8580271 34.29448775 9 32.8125 C10.42346136 30.23247629 9.70744012 28.81953736 9 26 C8.43230989 24.35156651 7.82621542 22.71598538 7.1875 21.09375 C6.83429688 20.18496094 6.48109375 19.27617187 6.1171875 18.33984375 C5.74851562 17.40269531 5.37984375 16.46554687 5 15.5 C4.2670598 13.63689676 3.53776597 11.77235405 2.8125 9.90625 C2.48894531 9.08447266 2.16539062 8.26269531 1.83203125 7.41601562 C0.9857137 4.95851606 0.45083922 2.55703255 0 0 Z " fill="#120901" transform="translate(287,241)"/>
<path d="M0 0 C0.33 0 0.66 0 1 0 C1.33 2.97 1.66 5.94 2 9 C3.32 8.67 4.64 8.34 6 8 C8.33300933 7.96111651 10.66709801 7.9551365 13 8 C13 8.66 13 9.32 13 10 C10.69 10 8.38 10 6 10 C6.33845947 10.82201904 6.67691895 11.64403809 7.02563477 12.4909668 C8.27906687 15.55267842 9.52067239 18.61865137 10.75463867 21.68823242 C11.29035796 23.0140122 11.83067958 24.33794215 12.37573242 25.65991211 C13.15990544 27.56412769 13.9271056 29.4744548 14.69140625 31.38671875 C15.15748291 32.53358154 15.62355957 33.68044434 16.10375977 34.86206055 C17.04555813 38.1595093 17.20040877 39.80818812 16 43 C12.1496895 45.56687367 10.41430237 44.83288724 6 44 C6 46.31 6 48.62 6 51 C5.34 51 4.68 51 4 51 C3.75 45.375 3.75 45.375 6 42 C6.66 42 7.32 42 8 42 C7.505 40.515 7.505 40.515 7 39 C5.02 39.495 5.02 39.495 3 40 C3.33 37.69 3.66 35.38 4 33 C2.68 33 1.36 33 0 33 C0 22.11 0 11.22 0 0 Z " fill="#F6B20D" transform="translate(281,231)"/>
<path d="M0 0 C2.31 0 4.62 0 7 0 C7 10.56 7 21.12 7 32 C12.61 32 18.22 32 24 32 C24 33.98 24 35.96 24 38 C16.08 38 8.16 38 0 38 C0 25.46 0 12.92 0 0 Z " fill="#000000" transform="translate(136,232)"/>
<path d="M0 0 C0.95465783 2.16967689 1.14401212 3.56328793 0.3984375 5.82421875 C-0.35870385 7.5684743 -1.17609198 9.28627131 -2 11 C0.64 11 3.28 11 6 11 C6 11.33 6 11.66 6 12 C3.69 12 1.38 12 -1 12 C-0.93118026 17.07250914 -0.84324306 22.14418939 -0.73754883 27.21606445 C-0.70428828 28.94155693 -0.67625981 30.66715849 -0.65356445 32.39282227 C-0.62003847 34.87303166 -0.56772594 37.3522403 -0.51171875 39.83203125 C-0.50532883 40.60400345 -0.4989389 41.37597565 -0.49235535 42.17134094 C-0.40514751 46.33317335 -0.40514751 46.33317335 1.40429688 49.97851562 C3.37977618 51.24311254 4.85755578 51.49652097 7.1875 51.6875 C8.445625 51.790625 9.70375 51.89375 11 52 C10.67 52.66 10.34 53.32 10 54 C3.64948454 54.36637589 3.64948454 54.36637589 0.5625 52.625 C-1 51 -1 51 -1 49 C-2.32 48.67 -3.64 48.34 -5 48 C-4.34 48.99 -3.68 49.98 -3 51 C-2.46083854 53.6602023 -2.26629902 56.29262663 -2 59 C-5.12493704 55.87506296 -5.95911133 53.08354985 -6.125 48.6875 C-6.08375 47.800625 -6.0425 46.91375 -6 46 C-7.32 45.67 -8.64 45.34 -10 45 C-10 40.05 -10 35.1 -10 30 C-9.67 30 -9.34 30 -9 30 C-9.00902344 29.2471875 -9.01804688 28.494375 -9.02734375 27.71875 C-8.78351547 18.98333683 -6.5084431 6.5084431 0 0 Z " fill="#F3B111" transform="translate(258,218)"/>
<path d="M0 0 C2.64 0 5.28 0 8 0 C8 11.22 8 22.44 8 34 C9.32 34 10.64 34 12 34 C12 35.98 12 37.96 12 40 C10.14375 40.1546875 10.14375 40.1546875 8.25 40.3125 C7.20585937 40.39951172 7.20585937 40.39951172 6.140625 40.48828125 C2.74374185 39.71344476 1.83468731 37.89039064 0 35 C-0.34287211 32.1454975 -0.46989493 29.6959425 -0.390625 26.85546875 C-0.38496521 26.08568192 -0.37930542 25.31589508 -0.37347412 24.52278137 C-0.35117872 22.07704057 -0.30099875 19.6327939 -0.25 17.1875 C-0.229926 15.52410978 -0.2116768 13.86069647 -0.1953125 12.19726562 C-0.15133684 8.13093942 -0.08235979 4.06572256 0 0 Z " fill="#030101" transform="translate(273,230)"/>
<path d="M0 0 C2.31 0 4.62 0 7 0 C7.33 10.89 7.66 21.78 8 33 C8.99 33.33 9.98 33.66 11 34 C11.33 35.98 11.66 37.96 12 40 C4.68246445 40.4878357 4.68246445 40.4878357 1.890625 38.4921875 C-0.74052378 35.02385501 -0.50298594 31.90773424 -0.390625 27.734375 C-0.38496521 26.94097717 -0.37930542 26.14757935 -0.37347412 25.33013916 C-0.35113147 22.80280527 -0.30094176 20.27690335 -0.25 17.75 C-0.22993214 16.03387468 -0.21168187 14.31772708 -0.1953125 12.6015625 C-0.15127395 8.4004922 -0.08226326 4.20048865 0 0 Z " fill="#0C0300" transform="translate(257,230)"/>
<path d="M0 0 C6.27 0 12.54 0 19 0 C19.66 1.753125 20.32 3.50625 21 5.3125 C21.37125 6.29863281 21.7425 7.28476563 22.125 8.30078125 C23 11 23 11 23 14 C24.32 14.33 25.64 14.66 27 15 C27 15.99 27 16.98 27 18 C21.65141993 20.67429003 17.99290494 21.57995854 12 21 C9 19.5 9 19.5 7 18 C7.78757869 14.31642885 9.28226829 11.38977591 11.0625 8.09765625 C12.27165913 5.59962681 12.27165913 5.59962681 13 1 C9.37 1 5.74 1 2 1 C2 7.6 2 14.2 2 21 C1.34 20.67 0.68 20.34 0 20 C0 13.4 0 6.8 0 0 Z " fill="#F8EAB3" transform="translate(103,242)"/>
<path d="M0 0 C4.95 0 9.9 0 15 0 C15.18977529 3.21111842 15.3279817 6.41097307 15.4375 9.625 C15.49615234 10.52863281 15.55480469 11.43226563 15.61523438 12.36328125 C15.78419353 18.9768252 15.78419353 18.9768252 13.51391602 21.93896484 C10.31020021 24.73890046 7.1090163 26.75484355 3 28 C3.33 27.01 3.66 26.02 4 25 C4.99 25 5.98 25 7 25 C7 23.68 7 22.36 7 21 C5.68 20.67 4.36 20.34 3 20 C4.98 19.34 6.96 18.68 9 18 C8.60196439 15.11424181 8.20990931 14.17810487 5.9375 12.25 C5.298125 11.8375 4.65875 11.425 4 11 C4 11.99 4 12.98 4 14 C2.68 14 1.36 14 0 14 C-0.89214652 11.32356043 -1.13540211 9.74615622 -1.125 7 C-1.12757812 6.319375 -1.13015625 5.63875 -1.1328125 4.9375 C-1 3 -1 3 0 0 Z " fill="#FDFCF3" transform="translate(85,242)"/>
<path d="M0 0 C2.475 0.99 2.475 0.99 5 2 C4.67 2.66 4.34 3.32 4 4 C3.93003986 5.70702735 3.91559846 7.41668003 3.9375 9.125 C3.95103516 10.49011719 3.95103516 10.49011719 3.96484375 11.8828125 C3.97644531 12.58148438 3.98804687 13.28015625 4 14 C5.32 14 6.64 14 8 14 C7.67 12.02 7.34 10.04 7 8 C10.53586014 11.17320782 12.58578031 13.16743695 13 18 C7.96884611 21.0960947 3.76572856 21.8016521 -2 21 C-5.5625 19.5 -5.5625 19.5 -8 18 C-8 17.01 -8 16.02 -8 15 C-6.68 14.67 -5.36 14.34 -4 14 C-3.896875 13.360625 -3.79375 12.72125 -3.6875 12.0625 C-2.76096927 7.93522674 -1.38339371 3.99357051 0 0 Z " fill="#F7E8B0" transform="translate(81,242)"/>
<path d="M0 0 C2.31 0 4.62 0 7 0 C7 9.57 7 19.14 7 29 C4.69 29 2.38 29 0 29 C0 19.43 0 9.86 0 0 Z " fill="#FCFDFB" transform="translate(358,241)"/>
<path d="M0 0 C7.19242101 6.39790939 9.66422359 17.8509917 11 27 C11.21035334 31.3488266 11.19217119 35.65123703 11 40 C10.67 40 10.34 40 10 40 C9.66076424 37.64655194 9.32849466 35.2924516 9 32.9375 C8.90460938 32.28072266 8.80921875 31.62394531 8.7109375 30.94726562 C8.11112326 26.59861237 7.90872907 22.38670929 8 18 C7.34 18 6.68 18 6 18 C6 16.68 6 15.36 6 14 C5.34 14 4.68 14 4 14 C4.061875 14.94875 4.12375 15.8975 4.1875 16.875 C4.125625 17.90625 4.06375 18.9375 4 20 C0.77626323 22.14915785 -0.26703674 22.38286803 -4 22 C-4.66 21.34 -5.32 20.68 -6 20 C-5.96712417 17.27130593 -5.43602229 14.7033382 -5 12 C-3.02 12 -1.04 12 1 12 C1.08159574 7.83861737 0.98248524 4.0527516 0 0 Z " fill="#EDB327" transform="translate(363,216)"/>
<path d="M0 0 C2.64 0 5.28 0 8 0 C8 10.89 8 21.78 8 33 C7.67 33 7.34 33 7 33 C6.67 22.77 6.34 12.54 6 2 C4.68 1.67 3.36 1.34 2 1 C2 12.55 2 24.1 2 36 C2.99 36 3.98 36 5 36 C5 36.99 5 37.98 5 39 C6.65 39 8.3 39 10 39 C9.67 37.35 9.34 35.7 9 34 C9.99 34 10.98 34 12 34 C12 35.98 12 37.96 12 40 C10.14375 40.1546875 10.14375 40.1546875 8.25 40.3125 C7.20585937 40.39951172 7.20585937 40.39951172 6.140625 40.48828125 C2.74374185 39.71344476 1.83468731 37.89039064 0 35 C-0.34287211 32.1454975 -0.46989493 29.6959425 -0.390625 26.85546875 C-0.38496521 26.08568192 -0.37930542 25.31589508 -0.37347412 24.52278137 C-0.35117872 22.07704057 -0.30099875 19.6327939 -0.25 17.1875 C-0.229926 15.52410978 -0.2116768 13.86069647 -0.1953125 12.19726562 C-0.15133684 8.13093942 -0.08235979 4.06572256 0 0 Z " fill="#4C2D00" transform="translate(273,230)"/>
<path d="M0 0 C1.5 1.375 1.5 1.375 3 3 C3 3.66 3 4.32 3 5 C5.64 5 8.28 5 11 5 C10.67 5.66 10.34 6.32 10 7 C7.03 7 4.06 7 1 7 C0.34 10.63 -0.32 14.26 -1 18 C-3.64 18 -6.28 18 -9 18 C-9 16.68 -9 15.36 -9 14 C-8.01 14 -7.02 14 -6 14 C-6.061875 13.27425781 -6.12375 12.54851562 -6.1875 11.80078125 C-5.96071041 8.41311176 -4.96121929 6.92503525 -3 4.1875 C-2.1646875 3.00220703 -2.1646875 3.00220703 -1.3125 1.79296875 C-0.6628125 0.90544922 -0.6628125 0.90544922 0 0 Z " fill="#FDFBF0" transform="translate(327,252)"/>
<path d="M0 0 C0.33 0 0.66 0 1 0 C1 9.57 1 19.14 1 29 C0.34 29 -0.32 29 -1 29 C-1 27.68 -1 26.36 -1 25 C-1.66 25 -2.32 25 -3 25 C-2.67 26.32 -2.34 27.64 -2 29 C-2.66 29 -3.32 29 -4 29 C-4.67031719 27.0429132 -5.33614683 25.08428887 -6 23.125 C-6.556875 21.48917969 -6.556875 21.48917969 -7.125 19.8203125 C-8 17 -8 17 -8 15 C-7.34 15 -6.68 15 -6 15 C-5.34 16.32 -4.68 17.64 -4 19 C-1.00371461 16.00371461 -1.2750714 12.41506529 -0.875 8.375 C-0.78863281 7.57320312 -0.70226562 6.77140625 -0.61328125 5.9453125 C-0.40103673 3.96436365 -0.19950069 1.98227282 0 0 Z " fill="#F8B820" transform="translate(357,241)"/>
<path d="M0 0 C2.31 0 4.62 0 7 0 C7 9.57 7 19.14 7 29 C4.69 29 2.38 29 0 29 C0 19.43 0 9.86 0 0 Z M1 2 C1 10.58 1 19.16 1 28 C2.65 28 4.3 28 6 28 C5.67 19.42 5.34 10.84 5 2 C3.68 2 2.36 2 1 2 Z " fill="#FFFBCE" transform="translate(358,241)"/>
<path d="M0 0 C1.79133978 -0.05391993 3.58313899 -0.09275571 5.375 -0.125 C6.37273437 -0.14820313 7.37046875 -0.17140625 8.3984375 -0.1953125 C11 0 11 0 13 2 C12.75 4.0625 12.75 4.0625 12 6 C9.64653604 7.17673198 8.1193967 7.16623866 5.5 7.1875 C4.7059375 7.20167969 3.911875 7.21585937 3.09375 7.23046875 C1 7 1 7 -1 5 C-0.625 2.375 -0.625 2.375 0 0 Z " fill="#E3E3E3" transform="translate(202,270)"/>
<path d="M0 0 C0.66 0 1.32 0 2 0 C2.67467562 1.74692795 3.33944156 3.49768525 4 5.25 C4.556875 6.71179688 4.556875 6.71179688 5.125 8.203125 C6 11 6 11 6 15 C2.7 15 -0.6 15 -4 15 C-3.34728444 11.48294042 -2.48606976 8.10674923 -1.4375 4.6875 C-1.16808594 3.80449219 -0.89867187 2.92148438 -0.62109375 2.01171875 C-0.41613281 1.34785156 -0.21117187 0.68398437 0 0 Z " fill="#EFBE40" transform="translate(334,240)"/>
<path d="M0 0 C1.53271273 4.58798777 0.02911182 6.77944742 -2 11 C0.64 11 3.28 11 6 11 C6 11.33 6 11.66 6 12 C3.69 12 1.38 12 -1 12 C-1 23.88 -1 35.76 -1 48 C-1.33 48 -1.66 48 -2 48 C-2.495 30.675 -2.495 30.675 -3 13 C-3.66 13 -4.32 13 -5 13 C-5.33 13.66 -5.66 14.32 -6 15 C-5.39644592 11.14974121 -4.23227397 8.13898841 -2.4375 4.6875 C-1.98246094 3.80449219 -1.52742188 2.92148438 -1.05859375 2.01171875 C-0.53458984 1.01591797 -0.53458984 1.01591797 0 0 Z " fill="#DEAA2F" transform="translate(258,218)"/>
<path d="M0 0 C4.95 0 9.9 0 15 0 C15 6.6 15 13.2 15 20 C14.67 20 14.34 20 14 20 C14 13.73 14 7.46 14 1 C10.04 1 6.08 1 2 1 C2.66 5.29 3.32 9.58 4 14 C2.68 14 1.36 14 0 14 C-0.89214652 11.32356043 -1.13540211 9.74615622 -1.125 7 C-1.12757812 6.319375 -1.13015625 5.63875 -1.1328125 4.9375 C-1 3 -1 3 0 0 Z " fill="#FCF3C9" transform="translate(85,242)"/>
<path d="M0 0 C0.309375 0.639375 0.61875 1.27875 0.9375 1.9375 C1.8345163 3.93610821 1.8345163 3.93610821 3 5 C5.18639453 5.07258946 7.37500389 5.08373783 9.5625 5.0625 C10.76003906 5.05347656 11.95757812 5.04445313 13.19140625 5.03515625 C14.58166016 5.01775391 14.58166016 5.01775391 16 5 C15 8 15 8 12.9375 9.1875 C7.90247362 10.58016687 3.73355436 10.86677718 -1 8.5 C-1.66 8.005 -2.32 7.51 -3 7 C-2.38722388 4.03824877 -1.74627478 2.61941217 0 0 Z " fill="#F3C24E" transform="translate(113,253)"/>
<path d="M0 0 C-0.75 6.75 -0.75 6.75 -3 9 C-6.0625 9.1875 -6.0625 9.1875 -9 9 C-10 8 -10 8 -10.0625 5.4375 C-10.041875 4.633125 -10.02125 3.82875 -10 3 C-3.375 0 -3.375 0 0 0 Z " fill="#E5E5E5" transform="translate(242,256)"/>
<path d="M0 0 C3.5 0.1875 3.5 0.1875 7 1 C9 4 9 4 9 7 C5.04 7 1.08 7 -3 7 C-2 2 -2 2 0 0 Z " fill="#D9D9D9" transform="translate(175,246)"/>
<path d="M0 0 C2.5 0.25 2.5 0.25 4.5 2.25 C4.75 4.75 4.75 4.75 4.5 7.25 C2.5 9.25 2.5 9.25 0 9.5 C-2.5 9.25 -2.5 9.25 -4.5 7.25 C-4.75 4.75 -4.75 4.75 -4.5 2.25 C-2.5 0.25 -2.5 0.25 0 0 Z " fill="#EFEFEF" transform="translate(207.5,245.75)"/>
<path d="M0 0 C1.2375 0.1546875 1.2375 0.1546875 2.5 0.3125 C4.5 3.3125 4.5 3.3125 4.1875 5.9375 C3.5 8.3125 3.5 8.3125 2.5 9.3125 C0.0625 9.5 0.0625 9.5 -2.5 9.3125 C-4.5 7.3125 -4.5 7.3125 -4.75 4.8125 C-4.40047575 1.3172575 -3.47557682 0.4344471 0 0 Z " fill="#FEF5CD" transform="translate(361.5,228.6875)"/>
<path d="M0 0 C0.33 0.99 0.66 1.98 1 3 C-2.94440539 6.0537332 -6.01936356 6.32572255 -10.81640625 6.30078125 C-13.22597959 5.96887222 -14.89744217 5.19669391 -17 4 C-17 3.34 -17 2.68 -17 2 C-11.39 2 -5.78 2 0 2 C0 1.34 0 0.68 0 0 Z " fill="#F0BA3A" transform="translate(92,257)"/>
<path d="M0 0 C1.79068573 2.6860286 2.66055791 4.6626589 3.625 7.6875 C3.88539062 8.49574219 4.14578125 9.30398437 4.4140625 10.13671875 C4.60742188 10.75160156 4.80078125 11.36648437 5 12 C6.65 12.33 8.3 12.66 10 13 C9.67 13.99 9.34 14.98 9 16 C8.67 15.67 8.34 15.34 8 15 C5.32941149 14.85884839 2.67567762 14.95752893 0 15 C-1.47193312 12.05613377 -0.84936173 9.62609964 -0.5625 6.375 C-0.46066406 5.18648437 -0.35882813 3.99796875 -0.25390625 2.7734375 C-0.17011719 1.85820312 -0.08632812 0.94296875 0 0 Z " fill="#F9ECAD" transform="translate(120,244)"/>
<path d="M0 0 C1.4216868 4.26506039 -0.34613318 7.20037743 -1.9375 11.1875 C-2.22818359 11.93708984 -2.51886719 12.68667969 -2.81835938 13.45898438 C-3.53725036 15.30924477 -4.26754653 17.15506648 -5 19 C-6.62276158 16.56585763 -7.61744792 14.68680554 -8.625 12 C-8.88539063 11.319375 -9.14578125 10.63875 -9.4140625 9.9375 C-10 8 -10 8 -10 5 C-9.34 5 -8.68 5 -8 5 C-8 6.65 -8 8.3 -8 10 C-6.35 10.33 -4.7 10.66 -3 11 C-2.67 8.03 -2.34 5.06 -2 2 C-1.34 2 -0.68 2 0 2 C0 1.34 0 0.68 0 0 Z " fill="#E8AD1E" transform="translate(307,242)"/>
<path d="M0 0 C3.3 0 6.6 0 10 0 C10.33 1.32 10.66 2.64 11 4 C7.09519751 5.35862973 3.2898224 4.89469712 -0.75 4.5625 C-1.44738281 4.51029297 -2.14476563 4.45808594 -2.86328125 4.40429688 C-4.57596203 4.27525928 -6.28805066 4.13840386 -8 4 C-7.67 3.34 -7.34 2.68 -7 2 C-4.69 2 -2.38 2 0 2 C0 1.34 0 0.68 0 0 Z " fill="#F5C143" transform="translate(111,238)"/>
<path d="M0 0 C0.33 0.66 0.66 1.32 1 2 C1.66 2 2.32 2 3 2 C3 2.66 3 3.32 3 4 C4.32 3.67 5.64 3.34 7 3 C7 3.99 7 4.98 7 6 C4.66666667 6 2.33333333 6 0 6 C-1.39991628 6.29366879 -2.79529404 6.60921735 -4.1875 6.9375 C-8.11859129 7.8174061 -11.97571488 8.67805719 -16 9 C-16.99 8.34 -17.98 7.68 -19 7 C-16.03 7 -13.06 7 -10 7 C-10 6.34 -10 5.68 -10 5 C-7.03 5 -4.06 5 -1 5 C-0.67 3.35 -0.34 1.7 0 0 Z " fill="#FCEFBE" transform="translate(101,230)"/>
<path d="M0 0 C0 0.66 0 1.32 0 2 C-0.99 2 -1.98 2 -3 2 C-3 2.66 -3 3.32 -3 4 C-0.03 4 2.94 4 6 4 C6 4.33 6 4.66 6 5 C0.06 5.33 -5.88 5.66 -12 6 C-12.33 4.68 -12.66 3.36 -13 2 C-8.78419444 0.81957444 -4.38457241 0 0 0 Z " fill="#F3C349" transform="translate(94,237)"/>
<path d="M0 0 C2 1.375 2 1.375 4 3 C4 3.66 4 4.32 4 5 C6.97 5.495 6.97 5.495 10 6 C10 6.33 10 6.66 10 7 C5.05 7 0.1 7 -5 7 C-3.88820837 3.66462511 -2.52588702 2.36292656 0 0 Z " fill="#F9B40C" transform="translate(101,262)"/>
<path d="M0 0 C4.95 0 9.9 0 15 0 C15.66 2.97 16.32 5.94 17 9 C16.34 9 15.68 9 15 9 C14.34 7.02 13.68 5.04 13 3 C9.04 2.67 5.08 2.34 1 2 C0.34 3.32 -0.32 4.64 -1 6 C-1.33 5.34 -1.66 4.68 -2 4 C-1.34 2.68 -0.68 1.36 0 0 Z " fill="#F2BF46" transform="translate(328,261)"/>
<path d="M0 0 C0.33 0.99 0.66 1.98 1 3 C-0.32 4.32 -1.64 5.64 -3 7 C2.94 6.67 8.88 6.34 15 6 C15 6.66 15 7.32 15 8 C6.75 8 -1.5 8 -10 8 C-8.50415516 5.00831032 -5.93920694 4.46960347 -3 3 C-1.18445841 1.43897509 -1.18445841 1.43897509 0 0 Z " fill="#F4C352" transform="translate(99,262)"/>
<path d="M0 0 C11.82114064 -0.45368983 21.76137645 -0.10677272 33 4 C33 4.33 33 4.66 33 5 C30.66705225 5.04241723 28.33297433 5.04092937 26 5 C25.67 4.67 25.34 4.34 25 4 C22.67182036 3.63239269 20.3381615 3.29758419 18 3 C18 2.34 18 1.68 18 1 C12.06 1 6.12 1 0 1 C0 0.67 0 0.34 0 0 Z " fill="#E0AF32" transform="translate(302,188)"/>
<path d="M0 0 C1.90318884 2.85478326 2.4619099 4.41941308 3.125 7.6875 C3.29257812 8.49574219 3.46015625 9.30398438 3.6328125 10.13671875 C3.75398438 10.75160156 3.87515625 11.36648438 4 12 C1.36 12 -1.28 12 -4 12 C-4.66 9.03 -5.32 6.06 -6 3 C-5.01 3.495 -5.01 3.495 -4 4 C-3.566875 5.485 -3.566875 5.485 -3.125 7 C-2.75375 7.99 -2.3825 8.98 -2 10 C0.03243548 10.96877057 0.03243548 10.96877057 2 11 C2 10.01 2 9.02 2 8 C1.34 8 0.68 8 0 8 C0 5.36 0 2.72 0 0 Z " fill="#FEF4C0" transform="translate(349,258)"/>
<path d="M0 0 C2.97 0 5.94 0 9 0 C7.875 2.5 7.875 2.5 6 5 C2.8125 5.3125 2.8125 5.3125 0 5 C0 3.35 0 1.7 0 0 Z " fill="#060103" transform="translate(288,276)"/>
<path d="M0 0 C1.134375 0.020625 2.26875 0.04125 3.4375 0.0625 C3.4375 0.7225 3.4375 1.3825 3.4375 2.0625 C1.1275 2.0625 -1.1825 2.0625 -3.5625 2.0625 C-3.27375 2.74957031 -2.985 3.43664062 -2.6875 4.14453125 C-2.31625 5.04558594 -1.945 5.94664062 -1.5625 6.875 C-1.19125 7.76832031 -0.82 8.66164062 -0.4375 9.58203125 C0.4375 12.0625 0.4375 12.0625 0.4375 15.0625 C-0.2225 15.0625 -0.8825 15.0625 -1.5625 15.0625 C-5.10326539 5.38862313 -5.10326539 5.38862313 -4.5625 1.0625 C-3.5625 0.0625 -3.5625 0.0625 0 0 Z " fill="#EFB21B" transform="translate(290.5625,238.9375)"/>
<path d="M0 0 C0.33 0 0.66 0 1 0 C1 3.63 1 7.26 1 11 C-1.97 10.505 -1.97 10.505 -5 10 C-3.35 6.7 -1.7 3.4 0 0 Z " fill="#FDF7D0" transform="translate(117,248)"/>
<path d="M0 0 C3.58912412 3.58912412 3.44420474 4.77293583 3.6875 9.6875 C3.75324219 10.86699219 3.81898438 12.04648437 3.88671875 13.26171875 C3.92410156 14.16535156 3.96148437 15.06898438 4 16 C2.68 15.67 1.36 15.34 0 15 C0 10.05 0 5.1 0 0 Z " fill="#BEA66A" transform="translate(248,248)"/>
<path d="M0 0 C0.33 0 0.66 0 1 0 C1 3.63 1 7.26 1 11 C-0.65 11 -2.3 11 -4 11 C-2.68 7.37 -1.36 3.74 0 0 Z " fill="#FEFADA" transform="translate(82,245)"/>
<path d="M0 0 C0.33 0 0.66 0 1 0 C1.66 1.98 2.32 3.96 3 6 C4.65 6.33 6.3 6.66 8 7 C8.33 7.99 8.66 8.98 9 10 C6.69 10 4.38 10 2 10 C1.67 9.01 1.34 8.02 1 7 C0.34 6.67 -0.32 6.34 -1 6 C-0.67 4.02 -0.34 2.04 0 0 Z " fill="#F1B521" transform="translate(356,231)"/>
<path d="M0 0 C0.75410156 0.00451172 1.50820312 0.00902344 2.28515625 0.01367188 C4.14847127 0.02546501 6.01174555 0.04340058 7.875 0.0625 C7.875 0.3925 7.875 0.7225 7.875 1.0625 C6.64523438 1.15337891 6.64523438 1.15337891 5.390625 1.24609375 C3.77414063 1.37177734 3.77414063 1.37177734 2.125 1.5 C1.05765625 1.58121094 -0.0096875 1.66242188 -1.109375 1.74609375 C-3.57743692 2.00504843 -5.7886804 2.23823771 -8.125 3.0625 C-8.455 3.7225 -8.785 4.3825 -9.125 5.0625 C-9.455 3.7425 -9.785 2.4225 -10.125 1.0625 C-6.93675432 -0.53162284 -3.49603338 -0.03924735 0 0 Z " fill="#EED591" transform="translate(83.125,255.9375)"/>
<path d="M0 0 C2.44839588 3.67259383 4 6.54648201 4 11 C2.68 11 1.36 11 0 11 C0 7.37 0 3.74 0 0 Z " fill="#FEFCE5" transform="translate(120,244)"/>
<path d="M0 0 C0.33 0 0.66 0 1 0 C1.33 1.98 1.66 3.96 2 6 C1.01 6.33 0.02 6.66 -1 7 C-1.33 8.98 -1.66 10.96 -2 13 C-2.66 13 -3.32 13 -4 13 C-3.27991594 8.39146203 -1.68704061 4.32762591 0 0 Z " fill="#E5A819" transform="translate(308,262)"/>
<path d="M0 0 C0.99 0 1.98 0 3 0 C3 1.98 3 3.96 3 6 C0.36 6 -2.28 6 -5 6 C-5.66 4.68 -6.32 3.36 -7 2 C-6.01 2 -5.02 2 -4 2 C-4 2.99 -4 3.98 -4 5 C-2.35 5 -0.7 5 1 5 C0.67 3.35 0.34 1.7 0 0 Z " fill="#251000" transform="translate(282,264)"/>
<path d="M0 0 C1.22589844 0.01353516 1.22589844 0.01353516 2.4765625 0.02734375 C3.41628906 0.04474609 3.41628906 0.04474609 4.375 0.0625 C4.375 0.7225 4.375 1.3825 4.375 2.0625 C3.3025 2.206875 2.23 2.35125 1.125 2.5 C-1.54162949 2.89999442 -4.03899729 3.33841924 -6.625 4.0625 C-6.625 3.0725 -6.625 2.0825 -6.625 1.0625 C-4.21954362 -0.14022819 -2.67503047 -0.03821472 0 0 Z " fill="#F9B409" transform="translate(106.625,237.9375)"/>
<path d="M0 0 C0.66 0.33 1.32 0.66 2 1 C2 4.63 2 8.26 2 12 C1.67 12 1.34 12 1 12 C0.67 10.35 0.34 8.7 0 7 C-0.99 8.32 -1.98 9.64 -3 11 C-2.32829194 7.1936543 -1.27253436 3.64793184 0 0 Z " fill="#F7E9B1" transform="translate(117,242)"/>
<path d="M0 0 C2.31 0 4.62 0 7 0 C6.67 1.65 6.34 3.3 6 5 C5.67 4.01 5.34 3.02 5 2 C3.01508358 2.26676204 3.01508358 2.26676204 1 3 C0.67 3.99 0.34 4.98 0 6 C-0.66 6 -1.32 6 -2 6 C-1.34 4.02 -0.68 2.04 0 0 Z " fill="#3A2001" transform="translate(309,241)"/>
<path d="M0 0 C1.65 0 3.3 0 5 0 C1.87378374 3.39417765 -0.56541027 5.6062718 -5 7 C-5 6.34 -5 5.68 -5 5 C-4.01 4.67 -3.02 4.34 -2 4 C-0.79117904 1.99983534 -0.79117904 1.99983534 0 0 Z " fill="#EBAE2C" transform="translate(348,296)"/>
<path d="M0 0 C0.66 0.33 1.32 0.66 2 1 C1.34 2.65 0.68 4.3 0 6 C0.99 6 1.98 6 3 6 C3 6.66 3 7.32 3 8 C1.02 8.66 -0.96 9.32 -3 10 C-2.01 6.7 -1.02 3.4 0 0 Z " fill="#E4A816" transform="translate(314,246)"/>
<path d="M0 0 C0.33 0.99 0.66 1.98 1 3 C1.66 3 2.32 3 3 3 C3.33 4.98 3.66 6.96 4 9 C2.68 9 1.36 9 0 9 C0 6.03 0 3.06 0 0 Z " fill="#FEFAE2" transform="translate(85,247)"/>
<path d="M0 0 C0.33 0 0.66 0 1 0 C1 4.29 1 8.58 1 13 C1.66 13 2.32 13 3 13 C2.67 15.31 2.34 17.62 2 20 C1.67 20 1.34 20 1 20 C-0.05619003 15.71702469 -0.11702092 11.57014354 -0.0625 7.1875 C-0.05798828 6.49462891 -0.05347656 5.80175781 -0.04882812 5.08789062 C-0.03713156 3.39188932 -0.01919924 1.69593297 0 0 Z " fill="#F0F2F1" transform="translate(65,245)"/>
<path d="M0 0 C2.99220268 1.36370299 5.29026529 2.94908083 7.75 5.125 C8.67039062 5.93324219 8.67039062 5.93324219 9.609375 6.7578125 C10.06828125 7.16773438 10.5271875 7.57765625 11 8 C10.01 8 9.02 8 8 8 C7.34 7.34 6.68 6.68 6 6 C3.93125966 5.3574765 3.93125966 5.3574765 2 5 C2 4.01 2 3.02 2 2 C1.34 2 0.68 2 0 2 C0 1.34 0 0.68 0 0 Z " fill="#EAAF2C" transform="translate(346,199)"/>
<path d="M0 0 C0.66 0.33 1.32 0.66 2 1 C-0.23407889 4.35111834 -1.26215824 5.81553956 -5.25 6.8125 C-6.61125 6.9053125 -6.61125 6.9053125 -8 7 C-5.42215154 4.35247996 -3.08351902 2.05567935 0 0 Z " fill="#EBAD2A" transform="translate(278,197)"/>
<path d="M0 0 C1.65 0.33 3.3 0.66 5 1 C5 1.66 5 2.32 5 3 C2.36 3.33 -0.28 3.66 -3 4 C-3 3.34 -3 2.68 -3 2 C-2.01 2 -1.02 2 0 2 C0 1.34 0 0.68 0 0 Z " fill="#F6B50D" transform="translate(94,237)"/>
<path d="M0 0 C5.4389165 -0.21755666 9.87080814 -0.10428384 15 2 C15 2.33 15 2.66 15 3 C12.66705225 3.04241723 10.33297433 3.04092937 8 3 C7.67 2.67 7.34 2.34 7 2 C4.67182036 1.63239269 2.3381615 1.29758419 0 1 C0 0.67 0 0.34 0 0 Z " fill="#ECB12A" transform="translate(320,190)"/>
<path d="M0 0 C1.32 0 2.64 0 4 0 C4.33 1.65 4.66 3.3 5 5 C3.35 5 1.7 5 0 5 C0 3.35 0 1.7 0 0 Z " fill="#FAB303" transform="translate(333,248)"/>
<path d="M0 0 C0.66 0.66 1.32 1.32 2 2 C0.68 5.3 -0.64 8.6 -2 12 C-2.33 12 -2.66 12 -3 12 C-3.34833144 7.12335991 -2.41685712 4.22949995 0 0 Z " fill="#EDEDEB" transform="translate(247,270)"/>
<path d="M0 0 C2.475 0.495 2.475 0.495 5 1 C5 1.66 5 2.32 5 3 C7.31 3 9.62 3 12 3 C12 3.33 12 3.66 12 4 C3.42857143 4.28571429 3.42857143 4.28571429 0 2 C0 1.34 0 0.68 0 0 Z " fill="#EDBD46" transform="translate(111,259)"/>
<path d="M0 0 C2.31 0 4.62 0 7 0 C7 0.99 7 1.98 7 3 C5.35 2.67 3.7 2.34 2 2 C1.67 2.99 1.34 3.98 1 5 C0.67 3.35 0.34 1.7 0 0 Z " fill="#3E1F00" transform="translate(287,241)"/>
<path d="M0 0 C0.99 0.33 1.98 0.66 3 1 C3 3.97 3 6.94 3 10 C0.70366176 6.55549263 0.45983515 4.06187717 0 0 Z " fill="#F1B921" transform="translate(346,246)"/>
<path d="M0 0 C2.475 0.495 2.475 0.495 5 1 C6.125 3.75 6.125 3.75 7 7 C6.0546875 9.203125 6.0546875 9.203125 5 11 C4.89042969 10.37351563 4.78085938 9.74703125 4.66796875 9.1015625 C4.43013672 7.87566406 4.43013672 7.87566406 4.1875 6.625 C3.96126953 5.40683594 3.96126953 5.40683594 3.73046875 4.1640625 C3.12455058 1.64179359 3.12455058 1.64179359 0 0 Z " fill="#FDF5D2" transform="translate(118,237)"/>
<path d="M0 0 C3.53790403 3.69172595 3.59115883 7.09390595 4 12 C1.07034088 9.07034088 0.05866431 6.319947 -0.125 2.1875 C-0.08375 1.465625 -0.0425 0.74375 0 0 Z " fill="#DBA531" transform="translate(252,265)"/>
<path d="M0 0 C1.46726798 3.81489674 0.43336419 6.29011622 -1 10 C-1.33 10 -1.66 10 -2 10 C-2 7.36 -2 4.72 -2 2 C-1.34 2 -0.68 2 0 2 C0 1.34 0 0.68 0 0 Z " fill="#FEF7CF" transform="translate(333,240)"/>
<path d="M0 0 C0.66 0 1.32 0 2 0 C4.1875 2.25 4.1875 2.25 6 5 C5.67 6.32 5.34 7.64 5 9 C3.35 6.03 1.7 3.06 0 0 Z " fill="#E6AE37" transform="translate(256,278)"/>
<path d="M0 0 C2.52259061 1.97420135 2.9929808 2.96745642 3.6875 6.1875 C3.790625 7.115625 3.89375 8.04375 4 9 C3.34 9 2.68 9 2 9 C0.50178941 5.62902617 0 3.79557881 0 0 Z " fill="#D8A21E" transform="translate(287,245)"/>
</svg>
