<?xml version="1.0" encoding="UTF-8"?>
<svg version="1.1" xmlns="http://www.w3.org/2000/svg" width="848" height="536">
<path d="M0 0 C0.66 0 1.32 0 2 0 C2.33 4.29 2.66 8.58 3 13 C3.66 13 4.32 13 5 13 C5.33 18.28 5.66 23.56 6 29 C6.66 29 7.32 29 8 29 C8.84681133 34.08086796 9.09038099 38.84828377 9 44 C9.66 44 10.32 44 11 44 C11.33 48.95 11.66 53.9 12 59 C12.66 59 13.32 59 14 59 C14 61.64 14 64.28 14 67 C14.66 67 15.32 67 16 67 C16.33 71.62 16.66 76.24 17 81 C17.66 81 18.32 81 19 81 C19.33 83.64 19.66 86.28 20 89 C21.65 89 23.3 89 25 89 C25 88.34 25 87.68 25 87 C27.97 86.67 30.94 86.34 34 86 C34 85.34 34 84.68 34 84 C35.98 84 37.96 84 40 84 C40 83.34 40 82.68 40 82 C50.23 82 60.46 82 71 82 C71 82.66 71 83.32 71 84 C72.32 84 73.64 84 75 84 C75 84.66 75 85.32 75 86 C78.3 86.33 81.6 86.66 85 87 C85 87.66 85 88.32 85 89 C87.31 89.33 89.62 89.66 92 90 C92 90.66 92 91.32 92 92 C93.98 92.33 95.96 92.66 98 93 C98 93.66 98 94.32 98 95 C99.98 95.33 101.96 95.66 104 96 C104 96.66 104 97.32 104 98 C105.65 98.33 107.3 98.66 109 99 C109 99.66 109 100.32 109 101 C110.98 101.33 112.96 101.66 115 102 C115 102.66 115 103.32 115 104 C116.65 104.33 118.3 104.66 120 105 C120.33 106.32 120.66 107.64 121 109 C122.65 109.33 124.3 109.66 126 110 C126 110.66 126 111.32 126 112 C127.65 112.33 129.3 112.66 131 113 C131 113.66 131 114.32 131 115 C132.98 115.33 134.96 115.66 137 116 C137 116.66 137 117.32 137 118 C138.98 118.33 140.96 118.66 143 119 C143 119.66 143 120.32 143 121 C145.31 121.33 147.62 121.66 150 122 C150 122.66 150 123.32 150 124 C161.22 124 172.44 124 184 124 C184 123.34 184 122.68 184 122 C184.7425 121.938125 185.485 121.87625 186.25 121.8125 C189.87017367 120.74290323 190.77383898 118.99140387 193 116 C197.54054054 112 197.54054054 112 200 112 C200 111.34 200 110.68 200 110 C202.31 109.67 204.62 109.34 207 109 C207 108.34 207 107.68 207 107 C212.61 107 218.22 107 224 107 C224 107.66 224 108.32 224 109 C225.85625 109.0928125 225.85625 109.0928125 227.75 109.1875 C231.10181381 109.59984968 231.76198594 109.74838514 234.1875 112.3125 C235.0846875 113.6428125 235.0846875 113.6428125 236 115 C236.886875 115.598125 237.77375 116.19625 238.6875 116.8125 C242.05051059 119.99372623 241.77289348 122.45786968 242 127 C242.66 127 243.32 127 244 127 C244 132.94 244 138.88 244 145 C243.34 145 242.68 145 242 145 C241.67 146.98 241.34 148.96 241 151 C240.34 151 239.68 151 239 151 C238.67 152.65 238.34 154.3 238 156 C237.34 156 236.68 156 236 156 C235.67 156.99 235.34 157.98 235 159 C234.34 159 233.68 159 233 159 C233 161.97 233 164.94 233 168 C233.66 168 234.32 168 235 168 C235.33 170.64 235.66 173.28 236 176 C236.66 176 237.32 176 238 176 C238.33 178.64 238.66 181.28 239 184 C239.66 184 240.32 184 241 184 C241.33 186.31 241.66 188.62 242 191 C242.66 191 243.32 191 244 191 C244 191.99 244 192.98 244 194 C244.66 194 245.32 194 246 194 C246.33 196.64 246.66 199.28 247 202 C247.66 202 248.32 202 249 202 C249.33 204.64 249.66 207.28 250 210 C250.66 210 251.32 210 252 210 C252.33 212.31 252.66 214.62 253 217 C253.66 217 254.32 217 255 217 C255.33 219.64 255.66 222.28 256 225 C256.66 225 257.32 225 258 225 C258.33 227.64 258.66 230.28 259 233 C259.66 233 260.32 233 261 233 C261.33 235.31 261.66 237.62 262 240 C262.66 240 263.32 240 264 240 C264.33 242.64 264.66 245.28 265 248 C265.66 248 266.32 248 267 248 C267 248.99 267 249.98 267 251 C267.66 251 268.32 251 269 251 C269.33 253.64 269.66 256.28 270 259 C270.66 259 271.32 259 272 259 C272.33 261.31 272.66 263.62 273 266 C273.66 266 274.32 266 275 266 C275.33 268.64 275.66 271.28 276 274 C276.66 274 277.32 274 278 274 C278.33 276.64 278.66 279.28 279 282 C279.66 282 280.32 282 281 282 C281.33 284.31 281.66 286.62 282 289 C282.66 289 283.32 289 284 289 C284.33 291.64 284.66 294.28 285 297 C285.66 297 286.32 297 287 297 C287.33 299.64 287.66 302.28 288 305 C288.66 305 289.32 305 290 305 C290 305.99 290 306.98 290 308 C290.66 308 291.32 308 292 308 C292.33 310.31 292.66 312.62 293 315 C293.66 315 294.32 315 295 315 C295 316.65 295 318.3 295 320 C295.99 320 296.98 320 298 320 C298 320.66 298 321.32 298 322 C299.5778125 321.9690625 299.5778125 321.9690625 301.1875 321.9375 C304.32704904 321.98896802 306.96883396 322.26517187 310 323 C310 323.66 310 324.32 310 325 C313.63 325.33 317.26 325.66 321 326 C321 326.66 321 327.32 321 328 C322.98 328.33 324.96 328.66 327 329 C327 329.66 327 330.32 327 331 C328.32 331.33 329.64 331.66 331 332 C331 332.66 331 333.32 331 334 C331.99 334.33 332.98 334.66 334 335 C334.02703562 337.58340384 334.04685611 340.16652308 334.0625 342.75 C334.07087891 343.47960937 334.07925781 344.20921875 334.08789062 344.9609375 C334.10391684 348.48670558 333.95292713 351.61034916 333 355 C332.34 355 331.68 355 331 355 C330.67 356.98 330.34 358.96 330 361 C329.34 361 328.68 361 328 361 C327.67 361.99 327.34 362.98 327 364 C326.34 364 325.68 364 325 364 C324.938125 364.5775 324.87625 365.155 324.8125 365.75 C323.6726745 368.90643986 321.66405371 370.03367464 319 372 C318.195625 372.86625 318.195625 372.86625 317.375 373.75 C316 375 316 375 313 375 C313 375.66 313 376.32 313 377 C311.35 377.33 309.7 377.66 308 378 C307.67 378.99 307.34 379.98 307 381 C306.01 381 305.02 381 304 381 C304 381.66 304 382.32 304 383 C302.02 383.33 300.04 383.66 298 384 C298 384.66 298 385.32 298 386 C295.36 386.33 292.72 386.66 290 387 C290 387.66 290 388.32 290 389 C288.35 389 286.7 389 285 389 C285 389.66 285 390.32 285 391 C282.03 391.33 279.06 391.66 276 392 C276 392.66 276 393.32 276 394 C272.04 394.33 268.08 394.66 264 395 C264 395.66 264 396.32 264 397 C257.95170514 397.89604368 252.1105424 398.11269443 246 398 C246 398.66 246 399.32 246 400 C226.89370821 400.97581713 208.10414121 401.02822174 189 400 C189 399.34 189 398.68 189 398 C188.29875 398.01160156 187.5975 398.02320313 186.875 398.03515625 C181.13886898 398.08971184 175.67221747 397.85618377 170 397 C170 396.34 170 395.68 170 395 C166.04 394.67 162.08 394.34 158 394 C158 393.34 158 392.68 158 392 C154.37 391.67 150.74 391.34 147 391 C147 390.34 147 389.68 147 389 C146.01 389 145.02 389 144 389 C144 388.34 144 387.68 144 387 C141.69 386.67 139.38 386.34 137 386 C137 385.34 137 384.68 137 384 C135.02 383.67 133.04 383.34 131 383 C131 382.34 131 381.68 131 381 C129.865625 380.87625 128.73125 380.7525 127.5625 380.625 C125.7990625 380.315625 125.7990625 380.315625 124 380 C123.67 379.34 123.34 378.68 123 378 C122.01 377.67 121.02 377.34 120 377 C120 376.34 120 375.68 120 375 C119.01 374.67 118.02 374.34 117 374 C117 373.34 117 372.68 117 372 C116.236875 371.896875 115.47375 371.79375 114.6875 371.6875 C111.76410969 370.93965597 110.77285665 370.39335648 109 368 C108.64830932 366.67139075 108.31229724 365.33841672 108 364 C107.34 363.67 106.68 363.34 106 363 C106 362.34 106 361.68 106 361 C105.34 361 104.68 361 104 361 C103.67 359.02 103.34 357.04 103 355 C102.34 355 101.68 355 101 355 C99.95023036 351.85069107 99.89868405 349.61185544 99.9375 346.3125 C99.94652344 345.31863281 99.95554687 344.32476562 99.96484375 343.30078125 C99.97644531 342.54152344 99.98804688 341.78226562 100 341 C99.34 341 98.68 341 98 341 C98 340.01 98 339.02 98 338 C98.66 338 99.32 338 100 338 C100.33 336.68 100.66 335.36 101 334 C101.66 334 102.32 334 103 334 C103.33 333.01 103.66 332.02 104 331 C105.32 331 106.64 331 108 331 C108 330.34 108 329.68 108 329 C109.98 328.67 111.96 328.34 114 328 C114 327.34 114 326.68 114 326 C116.97 325.67 119.94 325.34 123 325 C123.33 324.01 123.66 323.02 124 322 C124.66 322 125.32 322 126 322 C126.33 319.69 126.66 317.38 127 315 C127.66 315 128.32 315 129 315 C129 314.01 129 313.02 129 312 C129.66 312 130.32 312 131 312 C131.33 309.69 131.66 307.38 132 305 C132.66 305 133.32 305 134 305 C134.33 303.02 134.66 301.04 135 299 C135.66 299 136.32 299 137 299 C137.33 296.36 137.66 293.72 138 291 C138.66 291 139.32 291 140 291 C140.33 289.02 140.66 287.04 141 285 C141.66 285 142.32 285 143 285 C143.33 282.36 143.66 279.72 144 277 C144.66 277 145.32 277 146 277 C146.33 275.02 146.66 273.04 147 271 C147.66 271 148.32 271 149 271 C149.33 269.02 149.66 267.04 150 265 C150.66 265 151.32 265 152 265 C152 263.35 152 261.7 152 260 C152.66 260 153.32 260 154 260 C154.33 258.02 154.66 256.04 155 254 C155.66 254 156.32 254 157 254 C157.33 251.36 157.66 248.72 158 246 C158.66 246 159.32 246 160 246 C160.33 244.02 160.66 242.04 161 240 C161.66 240 162.32 240 163 240 C163.33 238.02 163.66 236.04 164 234 C164.66 234 165.32 234 166 234 C166.33 231.69 166.66 229.38 167 227 C167.66 227 168.32 227 169 227 C169.33 224.69 169.66 222.38 170 220 C170.66 220 171.32 220 172 220 C172.33 217.69 172.66 215.38 173 213 C173.66 213 174.32 213 175 213 C175 212.01 175 211.02 175 210 C175.66 210 176.32 210 177 210 C177.33 208.02 177.66 206.04 178 204 C178.66 204 179.32 204 180 204 C180.33 201.36 180.66 198.72 181 196 C181.66 196 182.32 196 183 196 C183.33 194.02 183.66 192.04 184 190 C184.66 190 185.32 190 186 190 C186.33 187.36 186.66 184.72 187 182 C187.66 182 188.32 182 189 182 C189.33 180.02 189.66 178.04 190 176 C190.66 176 191.32 176 192 176 C192.33 173.36 192.66 170.72 193 168 C193.66 168 194.32 168 195 168 C195.33 166.02 195.66 164.04 196 162 C196.66 162 197.32 162 198 162 C198 161.01 198 160.02 198 159 C197.01 158.67 196.02 158.34 195 158 C195 157.34 195 156.68 195 156 C194.34 156 193.68 156 193 156 C191.375 154.625 191.375 154.625 190 153 C190 152.34 190 151.68 190 151 C133.9 151 77.8 151 20 151 C20 214.36 20 277.72 20 343 C20.66 343 21.32 343 22 343 C22.33 356.53 22.66 370.06 23 384 C23.66 384 24.32 384 25 384 C25.33 386.31 25.66 388.62 26 391 C26.99 391.33 27.98 391.66 29 392 C29 392.99 29 393.98 29 395 C29.66 395 30.32 395 31 395 C31.33 396.65 31.66 398.3 32 400 C32.99 400.33 33.98 400.66 35 401 C35 401.99 35 402.98 35 404 C35.66 404 36.32 404 37 404 C37 404.66 37 405.32 37 406 C37.99 406.33 38.98 406.66 40 407 C40 407.66 40 408.32 40 409 C40.66 409 41.32 409 42 409 C42.33 409.99 42.66 410.98 43 412 C43.515625 412.515625 44.03125 413.03125 44.5625 413.5625 C45.036875 414.036875 45.51125 414.51125 46 415 C46 415.66 46 416.32 46 417 C46.99 417.33 47.98 417.66 49 418 C49 418.66 49 419.32 49 420 C49.99 420.33 50.98 420.66 52 421 C52 421.66 52 422.32 52 423 C52.763125 423.103125 53.52625 423.20625 54.3125 423.3125 C57.18416484 424.04711194 58.23042094 424.6716065 60 427 C60 427.66 60 428.32 60 429 C60.763125 429.103125 61.52625 429.20625 62.3125 429.3125 C65.18416484 430.04711194 66.23042094 430.6716065 68 433 C68 433.66 68 434.32 68 435 C69.32 435.33 70.64 435.66 72 436 C72 436.66 72 437.32 72 438 C72.99 438 73.98 438 75 438 C75 438.66 75 439.32 75 440 C76.65 440.33 78.3 440.66 80 441 C80 441.66 80 442.32 80 443 C81.98 443.33 83.96 443.66 86 444 C86 444.66 86 445.32 86 446 C87.98 446.33 89.96 446.66 92 447 C92 447.66 92 448.32 92 449 C93.98 449.33 95.96 449.66 98 450 C98 450.66 98 451.32 98 452 C100.64 452.33 103.28 452.66 106 453 C106 453.66 106 454.32 106 455 C108.97 455.33 111.94 455.66 115 456 C115 456.66 115 457.32 115 458 C119.62 458.33 124.24 458.66 129 459 C129 459.66 129 460.32 129 461 C135.93 461 142.86 461 150 461 C150 466.94 150 472.88 150 479 C51.99 479 -46.02 479 -147 479 C-147 473.72 -147 468.44 -147 463 C-141.06 463 -135.12 463 -129 463 C-129 462.34 -129 461.68 -129 461 C-126.36 461 -123.72 461 -121 461 C-121 460.34 -121 459.68 -121 459 C-117.04 458.67 -113.08 458.34 -109 458 C-109 457.34 -109 456.68 -109 456 C-106.36 455.67 -103.72 455.34 -101 455 C-101 454.34 -101 453.68 -101 453 C-98.36 452.67 -95.72 452.34 -93 452 C-93 451.34 -93 450.68 -93 450 C-91.02 449.67 -89.04 449.34 -87 449 C-87 448.34 -87 447.68 -87 447 C-85.02 446.67 -83.04 446.34 -81 446 C-81 445.34 -81 444.68 -81 444 C-79.02 443.67 -77.04 443.34 -75 443 C-75 442.34 -75 441.68 -75 441 C-73.35 440.67 -71.7 440.34 -70 440 C-69.67 438.68 -69.34 437.36 -69 436 C-67.35 435.67 -65.7 435.34 -64 435 C-63.67 434.01 -63.34 433.02 -63 432 C-62.01 432 -61.02 432 -60 432 C-60 431.34 -60 430.68 -60 430 C-55.64705882 426 -55.64705882 426 -52 426 C-52 425.34 -52 424.68 -52 424 C-50.33784732 422.66104368 -48.67036393 421.32869858 -47 420 C-46.278125 419.0925 -45.55625 418.185 -44.8125 417.25 C-44.214375 416.5075 -43.61625 415.765 -43 415 C-42.34 415 -41.68 415 -41 415 C-40.67 414.01 -40.34 413.02 -40 412 C-39.34 412 -38.68 412 -38 412 C-37.896875 411.236875 -37.79375 410.47375 -37.6875 409.6875 C-36.95288806 406.81583516 -36.3283935 405.76957906 -34 404 C-33.34 404 -32.68 404 -32 404 C-32 403.01 -32 402.02 -32 401 C-31.34 400.67 -30.68 400.34 -30 400 C-29.67 399.01 -29.34 398.02 -29 397 C-28.34 397 -27.68 397 -27 397 C-26.67 395.35 -26.34 393.7 -26 392 C-25.34 392 -24.68 392 -24 392 C-23.67 390.02 -23.34 388.04 -23 386 C-22.34 386 -21.68 386 -21 386 C-20.67 384.02 -20.34 382.04 -20 380 C-19.34 380 -18.68 380 -18 380 C-17.67 367.79 -17.34 355.58 -17 343 C-16.34 343 -15.68 343 -15 343 C-15 279.64 -15 216.28 -15 151 C-72.75 151 -130.5 151 -190 151 C-190.33 152.65 -190.66 154.3 -191 156 C-191.66 156 -192.32 156 -193 156 C-193 156.66 -193 157.32 -193 158 C-193.66 158.33 -194.32 158.66 -195 159 C-195 160.65 -195 162.3 -195 164 C-194.34 164 -193.68 164 -193 164 C-193 164.99 -193 165.98 -193 167 C-192.34 167 -191.68 167 -191 167 C-190.67 168.98 -190.34 170.96 -190 173 C-189.34 173 -188.68 173 -188 173 C-187.67 175.64 -187.34 178.28 -187 181 C-186.34 181 -185.68 181 -185 181 C-184.67 182.98 -184.34 184.96 -184 187 C-183.34 187 -182.68 187 -182 187 C-181.67 189.31 -181.34 191.62 -181 194 C-180.34 194 -179.68 194 -179 194 C-178.67 195.98 -178.34 197.96 -178 200 C-177.34 200 -176.68 200 -176 200 C-175.67 202.64 -175.34 205.28 -175 208 C-174.34 208 -173.68 208 -173 208 C-172.67 209.98 -172.34 211.96 -172 214 C-171.34 214 -170.68 214 -170 214 C-170 214.99 -170 215.98 -170 217 C-169.34 217 -168.68 217 -168 217 C-167.67 219.64 -167.34 222.28 -167 225 C-166.34 225 -165.68 225 -165 225 C-164.67 226.98 -164.34 228.96 -164 231 C-163.34 231 -162.68 231 -162 231 C-161.67 233.64 -161.34 236.28 -161 239 C-160.34 239 -159.68 239 -159 239 C-158.67 240.98 -158.34 242.96 -158 245 C-157.34 245 -156.68 245 -156 245 C-155.67 247.64 -155.34 250.28 -155 253 C-154.34 253 -153.68 253 -153 253 C-152.67 254.98 -152.34 256.96 -152 259 C-151.34 259 -150.68 259 -150 259 C-149.67 260.98 -149.34 262.96 -149 265 C-148.34 265 -147.68 265 -147 265 C-147 266.32 -147 267.64 -147 269 C-146.34 269 -145.68 269 -145 269 C-144.67 271.31 -144.34 273.62 -144 276 C-143.34 276 -142.68 276 -142 276 C-141.67 278.31 -141.34 280.62 -141 283 C-140.34 283 -139.68 283 -139 283 C-138.67 284.98 -138.34 286.96 -138 289 C-137.34 289 -136.68 289 -136 289 C-135.67 290.98 -135.34 292.96 -135 295 C-134.34 295 -133.68 295 -133 295 C-132.67 297.64 -132.34 300.28 -132 303 C-131.34 303 -130.68 303 -130 303 C-129.67 304.98 -129.34 306.96 -129 309 C-128.34 309 -127.68 309 -127 309 C-126.67 311.64 -126.34 314.28 -126 317 C-125.34 317 -124.68 317 -124 317 C-124 317.99 -124 318.98 -124 320 C-123.34 320 -122.68 320 -122 320 C-121.67 321.98 -121.34 323.96 -121 326 C-119.02 326 -117.04 326 -115 326 C-115 326.66 -115 327.32 -115 328 C-112.36 328.33 -109.72 328.66 -107 329 C-107 329.66 -107 330.32 -107 331 C-105.02 331.33 -103.04 331.66 -101 332 C-101 332.66 -101 333.32 -101 334 C-100.01 334.33 -99.02 334.66 -98 335 C-98 335.66 -98 336.32 -98 337 C-97.01 337.33 -96.02 337.66 -95 338 C-94.90311779 343.44693314 -94.87137825 348.63904667 -96 354 C-96.66 354 -97.32 354 -98 354 C-98.33 356.31 -98.66 358.62 -99 361 C-99.66 361 -100.32 361 -101 361 C-101 361.66 -101 362.32 -101 363 C-101.66 363.33 -102.32 363.66 -103 364 C-103.103125 364.598125 -103.20625 365.19625 -103.3125 365.8125 C-104.3015917 368.95960996 -106.41478403 370.06108802 -109 372 C-109.33 372.66 -109.66 373.32 -110 374 C-112.5625 374.625 -112.5625 374.625 -115 375 C-115.33 375.99 -115.66 376.98 -116 378 C-116.99 378 -117.98 378 -119 378 C-119 378.66 -119 379.32 -119 380 C-120.65 380.33 -122.3 380.66 -124 381 C-124 381.66 -124 382.32 -124 383 C-125.98 383.33 -127.96 383.66 -130 384 C-130 384.66 -130 385.32 -130 386 C-131.98 386.33 -133.96 386.66 -136 387 C-136 387.66 -136 388.32 -136 389 C-136.99 389 -137.98 389 -139 389 C-139 389.66 -139 390.32 -139 391 C-142.3 391.33 -145.6 391.66 -149 392 C-149 392.66 -149 393.32 -149 394 C-152.3 394.33 -155.6 394.66 -159 395 C-159 395.66 -159 396.32 -159 397 C-163.76307437 397.95261487 -168.1666528 398.08333357 -173 398 C-173 398.66 -173 399.32 -173 400 C-182.66543055 401.1922117 -192.28175551 401.09622024 -202 401 C-202 401.66 -202 402.32 -202 403 C-209.59 403 -217.18 403 -225 403 C-225 402.34 -225 401.68 -225 401 C-226.26714844 401.01160156 -227.53429687 401.02320313 -228.83984375 401.03515625 C-230.53906101 401.04454419 -232.23827989 401.05364331 -233.9375 401.0625 C-234.76830078 401.07087891 -235.59910156 401.07925781 -236.45507812 401.08789062 C-242.05226441 401.10966956 -247.44733582 400.71159268 -253 400 C-253 399.34 -253 398.68 -253 398 C-257.95 397.67 -262.9 397.34 -268 397 C-268 396.34 -268 395.68 -268 395 C-271.63 394.67 -275.26 394.34 -279 394 C-279 393.34 -279 392.68 -279 392 C-281.64 391.67 -284.28 391.34 -287 391 C-287 390.34 -287 389.68 -287 389 C-288.32 389 -289.64 389 -291 389 C-291 388.34 -291 387.68 -291 387 C-292.98 386.67 -294.96 386.34 -297 386 C-297 385.34 -297 384.68 -297 384 C-298.98 383.67 -300.96 383.34 -303 383 C-303 382.34 -303 381.68 -303 381 C-304.65 380.67 -306.3 380.34 -308 380 C-308 379.34 -308 378.68 -308 378 C-308.7425 377.938125 -309.485 377.87625 -310.25 377.8125 C-313.87017367 376.74290323 -314.77383898 374.99140387 -317 372 C-317.886875 371.319375 -318.77375 370.63875 -319.6875 369.9375 C-322.21166197 367.82266159 -322.36507081 367.06882441 -323 364 C-323.99 363.67 -324.98 363.34 -326 363 C-326 362.01 -326 361.02 -326 360 C-326.66 360 -327.32 360 -328 360 C-328.33 357.36 -328.66 354.72 -329 352 C-329.66 352 -330.32 352 -331 352 C-331 347.05 -331 342.1 -331 337 C-330.34 337 -329.68 337 -329 337 C-328.67 336.01 -328.34 335.02 -328 334 C-327.01 334 -326.02 334 -325 334 C-325 333.34 -325 332.68 -325 332 C-323.35 331.67 -321.7 331.34 -320 331 C-320 330.34 -320 329.68 -320 329 C-317.03 328.67 -314.06 328.34 -311 328 C-311 327.34 -311 326.68 -311 326 C-307.37 325.67 -303.74 325.34 -300 325 C-300 324.34 -300 323.68 -300 323 C-297.03 322.67 -294.06 322.34 -291 322 C-290.67 319.36 -290.34 316.72 -290 314 C-289.34 314 -288.68 314 -288 314 C-287.67 311.36 -287.34 308.72 -287 306 C-286.34 306 -285.68 306 -285 306 C-285 305.01 -285 304.02 -285 303 C-284.34 303 -283.68 303 -283 303 C-282.67 300.36 -282.34 297.72 -282 295 C-281.34 295 -280.68 295 -280 295 C-279.67 292.69 -279.34 290.38 -279 288 C-278.34 288 -277.68 288 -277 288 C-276.67 285.36 -276.34 282.72 -276 280 C-275.34 280 -274.68 280 -274 280 C-273.67 277.36 -273.34 274.72 -273 272 C-272.34 272 -271.68 272 -271 272 C-270.67 269.69 -270.34 267.38 -270 265 C-269.34 265 -268.68 265 -268 265 C-267.67 262.36 -267.34 259.72 -267 257 C-266.34 257 -265.68 257 -265 257 C-264.67 254.69 -264.34 252.38 -264 250 C-263.34 250 -262.68 250 -262 250 C-262 248.68 -262 247.36 -262 246 C-261.34 246 -260.68 246 -260 246 C-259.67 243.69 -259.34 241.38 -259 239 C-258.34 239 -257.68 239 -257 239 C-256.505 235.04 -256.505 235.04 -256 231 C-255.34 231 -254.68 231 -254 231 C-253.505 227.04 -253.505 227.04 -253 223 C-252.34 223 -251.68 223 -251 223 C-250.67 220.69 -250.34 218.38 -250 216 C-249.34 216 -248.68 216 -248 216 C-247.505 212.04 -247.505 212.04 -247 208 C-246.34 208 -245.68 208 -245 208 C-244.505 204.04 -244.505 204.04 -244 200 C-243.34 200 -242.68 200 -242 200 C-241.67 197.69 -241.34 195.38 -241 193 C-240.34 193 -239.68 193 -239 193 C-239 192.01 -239 191.02 -239 190 C-238.34 190 -237.68 190 -237 190 C-236.505 186.04 -236.505 186.04 -236 182 C-235.34 182 -234.68 182 -234 182 C-233.505 178.04 -233.505 178.04 -233 174 C-232.34 174 -231.68 174 -231 174 C-230.67 171.69 -230.34 169.38 -230 167 C-229.34 167 -228.68 167 -228 167 C-228 165.35 -228 163.7 -228 162 C-228.7425 161.938125 -229.485 161.87625 -230.25 161.8125 C-233.87129113 160.74257307 -234.98712115 159.13114488 -237 156 C-237 155.01 -237 154.02 -237 153 C-237.66 153 -238.32 153 -239 153 C-239 152.34 -239 151.68 -239 151 C-239.66 151 -240.32 151 -241 151 C-241.495 146.545 -241.495 146.545 -242 142 C-242.66 142 -243.32 142 -244 142 C-244 138.37 -244 134.74 -244 131 C-243.34 131 -242.68 131 -242 131 C-241.67 128.03 -241.34 125.06 -241 122 C-240.34 122 -239.68 122 -239 122 C-239 121.01 -239 120.02 -239 119 C-236.6875 117 -236.6875 117 -234 115 C-233.46375 114.4225 -232.9275 113.845 -232.375 113.25 C-231 112 -231 112 -228 112 C-228 111.34 -228 110.68 -228 110 C-224.535 109.505 -224.535 109.505 -221 109 C-221 108.34 -221 107.68 -221 107 C-216.71 107 -212.42 107 -208 107 C-208 107.66 -208 108.32 -208 109 C-207.38511719 109.03738281 -206.77023438 109.07476562 -206.13671875 109.11328125 C-205.32847656 109.17902344 -204.52023438 109.24476562 -203.6875 109.3125 C-202.88699219 109.37050781 -202.08648437 109.42851563 -201.26171875 109.48828125 C-198.60933741 110.08838825 -197.63496121 110.85708967 -196 113 C-196 113.66 -196 114.32 -196 115 C-194.35 115.33 -192.7 115.66 -191 116 C-190.67 117.65 -190.34 119.3 -190 121 C-188.35 121.33 -186.7 121.66 -185 122 C-185 122.66 -185 123.32 -185 124 C-172.46 124 -159.92 124 -147 124 C-147 123.34 -147 122.68 -147 122 C-144.36 121.67 -141.72 121.34 -139 121 C-139 120.34 -139 119.68 -139 119 C-136.03 118.505 -136.03 118.505 -133 118 C-132.67 117.01 -132.34 116.02 -132 115 C-131.01 115 -130.02 115 -129 115 C-129 114.34 -129 113.68 -129 113 C-126.525 112.505 -126.525 112.505 -124 112 C-124 111.34 -124 110.68 -124 110 C-121.525 109.505 -121.525 109.505 -119 109 C-118.67 107.68 -118.34 106.36 -118 105 C-115.03 104.505 -115.03 104.505 -112 104 C-112 103.34 -112 102.68 -112 102 C-109.525 101.505 -109.525 101.505 -107 101 C-107 100.34 -107 99.68 -107 99 C-104.03 98.505 -104.03 98.505 -101 98 C-101 97.34 -101 96.68 -101 96 C-98.525 95.505 -98.525 95.505 -96 95 C-96 94.34 -96 93.68 -96 93 C-92.535 92.505 -92.535 92.505 -89 92 C-89 91.34 -89 90.68 -89 90 C-86.36 89.67 -83.72 89.34 -81 89 C-81 88.34 -81 87.68 -81 87 C-76.545 86.505 -76.545 86.505 -72 86 C-72 85.34 -72 84.68 -72 84 C-70.02 84 -68.04 84 -66 84 C-66 83.34 -66 82.68 -66 82 C-58.41 82 -50.82 82 -43 82 C-43 82.66 -43 83.32 -43 84 C-40.36 84 -37.72 84 -35 84 C-35 84.66 -35 85.32 -35 86 C-31.37 86.33 -27.74 86.66 -24 87 C-24 87.66 -24 88.32 -24 89 C-22.02 89.33 -20.04 89.66 -18 90 C-18 90.66 -18 91.32 -18 92 C-16.68 92 -15.36 92 -14 92 C-14 88.7 -14 85.4 -14 82 C-13.34 82 -12.68 82 -12 82 C-12.01160156 81.40574219 -12.02320313 80.81148438 -12.03515625 80.19921875 C-12.10546296 73.74104487 -11.68350916 67.42010387 -11 61 C-10.34 61 -9.68 61 -9 61 C-9 58.03 -9 55.06 -9 52 C-8.34 52 -7.68 52 -7 52 C-7.01160156 51.31035156 -7.02320313 50.62070313 -7.03515625 49.91015625 C-7.09342124 43.84227348 -6.78903948 38.01642604 -6 32 C-5.34 32 -4.68 32 -4 32 C-4.01160156 31.31035156 -4.02320313 30.62070312 -4.03515625 29.91015625 C-4.09342124 23.84227348 -3.78903948 18.01642604 -3 12 C-2.34 12 -1.68 12 -1 12 C-1.01160156 11.21753906 -1.02320313 10.43507813 -1.03515625 9.62890625 C-1.04869141 8.11103516 -1.04869141 8.11103516 -1.0625 6.5625 C-1.07410156 5.55316406 -1.08570313 4.54382813 -1.09765625 3.50390625 C-1 1 -1 1 0 0 Z M-204 164 C-205.30595419 165.08215542 -205.30595419 165.08215542 -205.1328125 167.69140625 C-205.10164422 183.1352902 -204.531062 198.5667167 -204 214 C-203.34 214 -202.68 214 -202 214 C-202.00523682 214.79656006 -202.01047363 215.59312012 -202.01586914 216.41381836 C-202.13344041 237.29834571 -201.75981118 258.12944187 -201 279 C-200.34 279 -199.68 279 -199 279 C-199.00523682 279.94842773 -199.01047363 280.89685547 -199.01586914 281.87402344 C-199.03293345 285.40007131 -199.0454611 288.92607515 -199.05493164 292.45214844 C-199.05995365 293.97689507 -199.0667725 295.50163691 -199.07543945 297.02636719 C-199.08759849 299.22071519 -199.09324968 301.4149994 -199.09765625 303.609375 C-199.10289307 304.92905273 -199.10812988 306.24873047 -199.11352539 307.60839844 C-199.02311329 310.30948418 -198.81881355 312.4500616 -198 315 C-196.35 315 -194.7 315 -193 315 C-193 315.66 -193 316.32 -193 317 C-173.00781027 317.89528936 -173.00781027 317.89528936 -153 318 C-153 318.66 -153 319.32 -153 320 C-149.37 320 -145.74 320 -142 320 C-142 320.66 -142 321.32 -142 322 C-138.7 322.33 -135.4 322.66 -132 323 C-132.33 321.02 -132.66 319.04 -133 317 C-133.66 317 -134.32 317 -135 317 C-135.33 315.02 -135.66 313.04 -136 311 C-136.66 311 -137.32 311 -138 311 C-138.33 308.36 -138.66 305.72 -139 303 C-139.66 303 -140.32 303 -141 303 C-141.33 301.02 -141.66 299.04 -142 297 C-142.66 297 -143.32 297 -144 297 C-144.33 295.02 -144.66 293.04 -145 291 C-145.66 291 -146.32 291 -147 291 C-147 289.35 -147 287.7 -147 286 C-147.66 286 -148.32 286 -149 286 C-149.33 284.02 -149.66 282.04 -150 280 C-150.66 280 -151.32 280 -152 280 C-152.495 276.04 -152.495 276.04 -153 272 C-153.66 272 -154.32 272 -155 272 C-155.33 270.02 -155.66 268.04 -156 266 C-156.66 266 -157.32 266 -158 266 C-158.33 264.02 -158.66 262.04 -159 260 C-159.66 260 -160.32 260 -161 260 C-161.495 256.535 -161.495 256.535 -162 253 C-162.66 253 -163.32 253 -164 253 C-164.495 249.535 -164.495 249.535 -165 246 C-165.66 246 -166.32 246 -167 246 C-167.495 242.535 -167.495 242.535 -168 239 C-168.66 239 -169.32 239 -170 239 C-170 238.01 -170 237.02 -170 236 C-170.66 236 -171.32 236 -172 236 C-172.33 234.02 -172.66 232.04 -173 230 C-173.66 230 -174.32 230 -175 230 C-175.33 227.36 -175.66 224.72 -176 222 C-176.66 222 -177.32 222 -178 222 C-178.33 220.02 -178.66 218.04 -179 216 C-179.66 216 -180.32 216 -181 216 C-181.33 213.36 -181.66 210.72 -182 208 C-182.66 208 -183.32 208 -184 208 C-184.33 206.02 -184.66 204.04 -185 202 C-185.66 202 -186.32 202 -187 202 C-187.33 199.36 -187.66 196.72 -188 194 C-188.66 194 -189.32 194 -190 194 C-190.33 192.02 -190.66 190.04 -191 188 C-191.66 188 -192.32 188 -193 188 C-193 187.01 -193 186.02 -193 185 C-193.66 185 -194.32 185 -195 185 C-195.33 182.36 -195.66 179.72 -196 177 C-196.66 177 -197.32 177 -198 177 C-198.33 175.02 -198.66 173.04 -199 171 C-199.66 171 -200.32 171 -201 171 C-201.33 168.69 -201.66 166.38 -202 164 C-202.66 164 -203.32 164 -204 164 Z M206 164 C206 164.99 206 165.98 206 167 C205.34 167 204.68 167 204 167 C203.67 168.98 203.34 170.96 203 173 C202.34 173 201.68 173 201 173 C200.67 175.64 200.34 178.28 200 181 C199.34 181 198.68 181 198 181 C198 181.99 198 182.98 198 184 C197.34 184 196.68 184 196 184 C195.67 185.98 195.34 187.96 195 190 C194.34 190 193.68 190 193 190 C192.67 192.31 192.34 194.62 192 197 C191.34 197 190.68 197 190 197 C189.67 199.31 189.34 201.62 189 204 C188.34 204 187.68 204 187 204 C186.67 206.31 186.34 208.62 186 211 C185.34 211 184.68 211 184 211 C183.67 212.98 183.34 214.96 183 217 C182.34 217 181.68 217 181 217 C180.67 218.98 180.34 220.96 180 223 C179.34 223 178.68 223 178 223 C177.67 225.64 177.34 228.28 177 231 C176.34 231 175.68 231 175 231 C175 231.99 175 232.98 175 234 C174.34 234 173.68 234 173 234 C172.67 236.64 172.34 239.28 172 242 C171.34 242 170.68 242 170 242 C169.67 243.98 169.34 245.96 169 248 C168.34 248 167.68 248 167 248 C166.67 249.98 166.34 251.96 166 254 C165.34 254 164.68 254 164 254 C163.67 256.64 163.34 259.28 163 262 C162.34 262 161.68 262 161 262 C160.67 263.98 160.34 265.96 160 268 C159.34 268 158.68 268 158 268 C157.67 270.64 157.34 273.28 157 276 C156.34 276 155.68 276 155 276 C154.67 277.98 154.34 279.96 154 282 C153.34 282 152.68 282 152 282 C152 282.99 152 283.98 152 285 C151.34 285 150.68 285 150 285 C149.67 287.31 149.34 289.62 149 292 C148.34 292 147.68 292 147 292 C146.67 294.31 146.34 296.62 146 299 C145.34 299 144.68 299 144 299 C143.67 301.31 143.34 303.62 143 306 C142.34 306 141.68 306 141 306 C140.67 307.98 140.34 309.96 140 312 C139.34 312 138.68 312 138 312 C137.67 314.64 137.34 317.28 137 320 C139.31 320 141.62 320 144 320 C144 319.34 144 318.68 144 318 C144.93005859 318.01740234 144.93005859 318.01740234 145.87890625 318.03515625 C153.96332056 318.11753019 161.94295895 317.60889919 170 317 C170 316.34 170 315.68 170 315 C170.65484375 315.00523682 171.3096875 315.01047363 171.984375 315.01586914 C174.98957333 315.036827 177.99475621 315.0497195 181 315.0625 C182.02996094 315.07087891 183.05992187 315.07925781 184.12109375 315.08789062 C189.85025613 315.10613637 195.33484101 314.86475384 201 314 C201 312.02 201 310.04 201 308 C201.66 308 202.32 308 203 308 C203.82436477 286.32315295 204.13651755 264.69158889 204 243 C204.66 243 205.32 243 206 243 C206.80642039 221.6555966 207.13950428 200.35917806 207 179 C207.66 179 208.32 179 209 179 C209 174.38 209 169.76 209 165 C208.01 164.67 207.02 164.34 206 164 Z M-219 165 C-219 166.65 -219 168.3 -219 170 C-219.66 170 -220.32 170 -221 170 C-221.33 172.31 -221.66 174.62 -222 177 C-222.66 177 -223.32 177 -224 177 C-224.33 179.31 -224.66 181.62 -225 184 C-225.66 184 -226.32 184 -227 184 C-227.33 186.31 -227.66 188.62 -228 191 C-228.66 191 -229.32 191 -230 191 C-230.33 193.64 -230.66 196.28 -231 199 C-231.66 199 -232.32 199 -233 199 C-233.33 201.64 -233.66 204.28 -234 207 C-234.66 207 -235.32 207 -236 207 C-236.33 209.31 -236.66 211.62 -237 214 C-237.66 214 -238.32 214 -239 214 C-239 215.65 -239 217.3 -239 219 C-239.66 219 -240.32 219 -241 219 C-241.33 221.64 -241.66 224.28 -242 227 C-242.66 227 -243.32 227 -244 227 C-244.33 229.31 -244.66 231.62 -245 234 C-245.66 234 -246.32 234 -247 234 C-247.33 236.64 -247.66 239.28 -248 242 C-248.66 242 -249.32 242 -250 242 C-250.33 243.98 -250.66 245.96 -251 248 C-251.66 248 -252.32 248 -253 248 C-253.33 250.64 -253.66 253.28 -254 256 C-254.66 256 -255.32 256 -256 256 C-256.33 258.31 -256.66 260.62 -257 263 C-257.66 263 -258.32 263 -259 263 C-259.33 265.64 -259.66 268.28 -260 271 C-260.66 271 -261.32 271 -262 271 C-262 272.65 -262 274.3 -262 276 C-262.66 276 -263.32 276 -264 276 C-264.33 278.31 -264.66 280.62 -265 283 C-265.66 283 -266.32 283 -267 283 C-267.33 285.64 -267.66 288.28 -268 291 C-268.66 291 -269.32 291 -270 291 C-270.33 293.64 -270.66 296.28 -271 299 C-271.66 299 -272.32 299 -273 299 C-273.33 301.31 -273.66 303.62 -274 306 C-274.66 306 -275.32 306 -276 306 C-276.33 307.98 -276.66 309.96 -277 312 C-277.66 312 -278.32 312 -279 312 C-279.33 314.64 -279.66 317.28 -280 320 C-277.69 320 -275.38 320 -273 320 C-273 319.34 -273 318.68 -273 318 C-272.27941406 318.01160156 -271.55882812 318.02320313 -270.81640625 318.03515625 C-258.53006982 318.13840277 -246.27162133 317.54347816 -234 317 C-234 316.34 -234 315.68 -234 315 C-225.42 315 -216.84 315 -208 315 C-208 304.44 -208 293.88 -208 283 C-208.66 283 -209.32 283 -210 283 C-209.99214478 281.81301514 -209.99214478 281.81301514 -209.98413086 280.60205078 C-209.86398282 259.37995232 -210.2549976 238.20879161 -211 217 C-211.66 217 -212.32 217 -213 217 C-212.99214478 215.70304199 -212.99214478 215.70304199 -212.98413086 214.37988281 C-212.89762268 197.8885761 -212.89185103 181.46392761 -214 165 C-215.65 165 -217.3 165 -219 165 Z M218 165 C218 170.61 218 176.22 218 182 C217.34 182 216.68 182 216 182 C215.19368848 204.675367 214.86052557 227.31072838 215 250 C214.34 250 213.68 250 213 250 C212.22785351 271.34286824 211.85404263 292.64306889 212 314 C229.34280454 314.69304862 246.64136947 315.16683587 264 315 C264 315.66 264 316.32 264 317 C273.9 317.495 273.9 317.495 284 318 C284 316.68 284 315.36 284 314 C283.34 314 282.68 314 282 314 C281.67 312.02 281.34 310.04 281 308 C280.34 308 279.68 308 279 308 C278.67 305.36 278.34 302.72 278 300 C277.34 300 276.68 300 276 300 C275.67 297.36 275.34 294.72 275 292 C274.34 292 273.68 292 273 292 C272.505 288.535 272.505 288.535 272 285 C271.34 285 270.68 285 270 285 C269.505 281.04 269.505 281.04 269 277 C268.34 277 267.68 277 267 277 C267 275.35 267 273.7 267 272 C266.34 272 265.68 272 265 272 C264.505 268.535 264.505 268.535 264 265 C263.34 265 262.68 265 262 265 C261.505 261.04 261.505 261.04 261 257 C260.34 257 259.68 257 259 257 C258.505 253.535 258.505 253.535 258 250 C257.34 250 256.68 250 256 250 C255.505 246.535 255.505 246.535 255 243 C254.34 243 253.68 243 253 243 C252.505 239.535 252.505 239.535 252 236 C251.34 236 250.68 236 250 236 C249.505 232.04 249.505 232.04 249 228 C248.34 228 247.68 228 247 228 C246.505 224.04 246.505 224.04 246 220 C245.34 220 244.68 220 244 220 C244 218.68 244 217.36 244 216 C243.34 216 242.68 216 242 216 C241.67 213.36 241.34 210.72 241 208 C240.34 208 239.68 208 239 208 C238.67 205.36 238.34 202.72 238 200 C237.34 200 236.68 200 236 200 C235.67 197.69 235.34 195.38 235 193 C234.34 193 233.68 193 233 193 C232.67 191.02 232.34 189.04 232 187 C231.34 187 230.68 187 230 187 C229.67 184.36 229.34 181.72 229 179 C228.34 179 227.68 179 227 179 C226.67 176.36 226.34 173.72 226 171 C225.34 171 224.68 171 224 171 C223.67 169.02 223.34 167.04 223 165 C221.35 165 219.7 165 218 165 Z M135 320 C135 320.66 135 321.32 135 322 C135.66 322 136.32 322 137 322 C137 321.34 137 320.68 137 320 C136.34 320 135.68 320 135 320 Z M184 323 C184 323.66 184 324.32 184 325 C183.43716309 324.99476318 182.87432617 324.98952637 182.29443359 324.98413086 C171.14181341 324.89435534 160.11347583 324.9540258 149 326 C149 326.66 149 327.32 149 328 C147.93072266 327.98259766 147.93072266 327.98259766 146.83984375 327.96484375 C141.43674634 327.91393974 136.32171525 328.05391729 131 329 C131 329.66 131 330.32 131 331 C129.9275 330.979375 128.855 330.95875 127.75 330.9375 C124.85209576 330.9857984 122.71387859 331.13155885 120 332 C120 332.66 120 333.32 120 334 C118.02 334.33 116.04 334.66 114 335 C114 335.66 114 336.32 114 337 C113.01 337.495 113.01 337.495 112 338 C112.66 338 113.32 338 114 338 C114.33 338.99 114.66 339.98 115 341 C115.99 341 116.98 341 118 341 C118 341.66 118 342.32 118 343 C118.99 343 119.98 343 121 343 C121 343.66 121 344.32 121 345 C125.29 345.33 129.58 345.66 134 346 C134 346.66 134 347.32 134 348 C141.03905044 348.93854006 147.90272572 349.10808032 155 349 C155 349.66 155 350.32 155 351 C169.95308288 352.46907481 184.99445973 352.09464921 200 352 C200.6686464 344.89892995 201.14593361 337.88246594 201.0625 330.75 C201.041875 328.1925 201.02125 325.635 201 323 C195.39 323 189.78 323 184 323 Z M210 323 C209.67 333.23 209.34 343.46 209 354 C215.93 354 222.86 354 230 354 C230 353.34 230 352.68 230 352 C230.94093506 352.00523682 231.88187012 352.01047363 232.85131836 352.01586914 C256.94747673 352.24113806 256.94747673 352.24113806 281 351 C281 350.34 281 349.68 281 349 C282.03447266 349.01740234 282.03447266 349.01740234 283.08984375 349.03515625 C289.15772652 349.09342124 294.98357396 348.78903948 301 348 C301 347.34 301 346.68 301 346 C304.96 345.67 308.92 345.34 313 345 C313 344.34 313 343.68 313 343 C313.99 343 314.98 343 316 343 C316 342.34 316 341.68 316 341 C317.65 340.67 319.3 340.34 321 340 C321.495 338.515 321.495 338.515 322 337 C321.505 336.01 321.505 336.01 321 335 C317.97065509 334.34227572 317.97065509 334.34227572 315 334 C315 333.34 315 332.68 315 332 C311.37 331.67 307.74 331.34 304 331 C304 330.34 304 329.68 304 329 C297.62641289 328.03794912 291.44070471 327.89344422 285 328 C285 327.34 285 326.68 285 326 C273.34041229 324.76804356 261.70920439 324.89752278 250 325 C250 324.34 250 323.68 250 323 C236.8 323 223.6 323 210 323 Z M-267 326 C-267 326.66 -267 327.32 -267 328 C-267.81082031 327.98839844 -268.62164062 327.97679687 -269.45703125 327.96484375 C-276.70566174 327.90577458 -283.79632201 328.19157121 -291 329 C-291 329.66 -291 330.32 -291 331 C-291.58007812 330.98839844 -292.16015625 330.97679687 -292.7578125 330.96484375 C-297.2998246 330.91237826 -301.52713569 331.08248937 -306 332 C-306 332.66 -306 333.32 -306 334 C-308.64 334.33 -311.28 334.66 -314 335 C-314 335.66 -314 336.32 -314 337 C-315.65 337.33 -317.3 337.66 -319 338 C-319.21531408 340.10031679 -319.21531408 340.10031679 -317.625 341.625 C-316.10031679 343.21531408 -316.10031679 343.21531408 -314 343 C-314 343.66 -314 344.32 -314 345 C-311.03 345.33 -308.06 345.66 -305 346 C-305 346.66 -305 347.32 -305 348 C-300.05 348.33 -295.1 348.66 -290 349 C-290 349.66 -290 350.32 -290 351 C-280.62895894 351.88495497 -271.40228594 352.1170409 -262 352 C-262 352.66 -262 353.32 -262 354 C-242.98094977 354.78722621 -224.03603767 355.14316122 -205 355 C-205 352.69 -205 350.38 -205 348 C-205.66 348 -206.32 348 -207 348 C-207 340.41 -207 332.82 -207 325 C-227.02889062 324.90334584 -246.99686921 324.82704155 -267 326 Z M-198 325 C-198 330.94 -198 336.88 -198 343 C-197.34 343 -196.68 343 -196 343 C-196 346.96 -196 350.92 -196 355 C-180.655 354.505 -180.655 354.505 -165 354 C-165 353.34 -165 352.68 -165 352 C-163.58460938 352.01740234 -163.58460938 352.01740234 -162.140625 352.03515625 C-154.03074116 352.09215343 -146.07707803 351.84230236 -138 351 C-138 350.34 -138 349.68 -138 349 C-132.72 348.67 -127.44 348.34 -122 348 C-122 347.34 -122 346.68 -122 346 C-119.03 345.67 -116.06 345.34 -113 345 C-112.67 343.68 -112.34 342.36 -112 341 C-111.01 341 -110.02 341 -109 341 C-109.495 339.02 -109.495 339.02 -110 337 C-110.99 337 -111.98 337 -113 337 C-113 336.34 -113 335.68 -113 335 C-115.64 334.67 -118.28 334.34 -121 334 C-121 333.34 -121 332.68 -121 332 C-126.05002222 330.96409801 -130.87416389 330.89748328 -136 331 C-136 330.34 -136 329.68 -136 329 C-144.34332544 327.80809637 -152.59323022 327.90716451 -161 328 C-161 327.34 -161 326.68 -161 326 C-173.34303973 325.40023482 -185.63995839 324.86112313 -198 325 Z " fill="#FDB940" transform="translate(421,18)"/>
</svg>
